<svg fill="none" height="100%" width="100%" viewBox="0 0 574 203" xmlns:xlink="http://www.w3.org/1999/xlink" xmlns="http://www.w3.org/2000/svg"><defs><linearGradient id="i0" gradientUnits="userSpaceOnUse" spreadMethod="pad" x2="14.249" y2="46.747" x1="-27.751" y1="-45.753"><stop offset="0%" stop-color="#e49246" /><stop offset="6.2%" stop-color="#ca7a30" /><stop offset="12.5%" stop-color="#af621a" /><stop offset="56.2%" stop-color="#8f5015" /><stop offset="100%" stop-color="#6e3e11" /></linearGradient><linearGradient id="i1" gradientUnits="userSpaceOnUse" spreadMethod="pad" x2="14.249" y2="46.747" x1="-27.751" y1="-45.753"><stop offset="0%" stop-color="#e49246" /><stop offset="6.2%" stop-color="#ca7a30" /><stop offset="12.5%" stop-color="#af621a" /><stop offset="56.2%" stop-color="#8f5015" /><stop offset="100%" stop-color="#6e3e11" /></linearGradient><clipPath id="i2"><rect height="229" width="382" y="0" x="0" /></clipPath><linearGradient id="i3" gradientUnits="userSpaceOnUse" spreadMethod="pad" x2="0" y2="87" x1="0" y1="-87"><stop offset="0%" stop-color="#191629" /><stop offset="50%" stop-color="#0d0b17" /><stop offset="100%" stop-color="#010005" /></linearGradient><radialGradient id="i4" gradientUnits="userSpaceOnUse" spreadMethod="pad" cx="-1.688" cy="-80" r="240.35" fy="-80" fx="-1.688"><stop offset="0%" stop-color="#443b63" /><stop offset="50%" stop-color="#2f2749" /><stop offset="100%" stop-color="#1a1330" /></radialGradient><g id="i5"><g transform="matrix(1,0,0,1,191,114.312)" id="i6"><g id="i6"><rect height="228.625" width="382" y="-114.313" x="-191" /></g></g><g transform="matrix(1,0,0,1,211.25,31.062)" id="i7"><g id="i7"><path fill="#08051b" d="M-21.75,-6.937C-21.75,-19.11,-14.729,-24.062,-8.75,-24.062C-2.771,-24.062,4.25,-19.11,4.25,-6.937C4.25,4.679,7.422,14.207,13.314,20.879C19.245,27.596,27.622,31.062,37.25,31.062C37.25,31.062,37.25,24.062,37.25,24.062C29.378,24.062,23.005,21.279,18.561,16.246C14.078,11.168,11.25,3.447,11.25,-6.937C11.25,-22.264,1.771,-31.062,-8.75,-31.062C-19.271,-31.062,-28.75,-22.264,-28.75,-6.937C-28.75,-6.937,-28.75,-4.438,-28.75,-4.438C-28.75,-4.438,-31.25,-4.438,-31.25,-4.438C-31.25,-4.438,-31.25,1.562,-31.25,1.562C-31.25,1.562,-28.75,1.562,-28.75,1.562C-28.75,1.562,-28.75,2.562,-28.75,2.562C-28.75,2.562,-33.25,2.562,-33.25,2.562C-33.25,2.562,-33.25,8.562,-33.25,8.562C-33.25,8.562,-28.75,8.562,-28.75,8.562C-28.75,8.562,-28.75,9.562,-28.75,9.562C-28.75,9.562,-35.25,9.562,-35.25,9.562C-35.25,9.562,-35.25,15.562,-35.25,15.562C-35.25,15.562,-28.75,15.562,-28.75,15.562C-28.75,15.562,-28.75,16.562,-28.75,16.562C-28.75,16.562,-37.25,16.562,-37.25,16.562C-37.25,16.562,-37.25,22.562,-37.25,22.562C-37.25,22.562,-28.75,22.562,-28.75,22.562C-28.75,22.562,-28.75,26.062,-28.75,26.062C-28.75,26.062,-28.75,26.063,-25.25,26.063C-21.75,26.063,-21.75,26.062,-21.75,26.062C-21.75,26.062,-21.75,22.562,-21.75,22.562C-21.75,22.562,-13.25,22.562,-13.25,22.562C-13.25,22.562,-13.25,16.562,-13.25,16.562C-13.25,16.562,-21.75,16.562,-21.75,16.562C-21.75,16.562,-21.75,15.562,-21.75,15.562C-21.75,15.562,-15.25,15.562,-15.25,15.562C-15.25,15.562,-15.25,9.562,-15.25,9.562C-15.25,9.562,-21.75,9.562,-21.75,9.562C-21.75,9.562,-21.75,8.562,-21.75,8.562C-21.75,8.562,-17.25,8.562,-17.25,8.562C-17.25,8.562,-17.25,2.562,-17.25,2.562C-17.25,2.562,-21.75,2.562,-21.75,2.562C-21.75,2.562,-21.75,1.562,-21.75,1.562C-21.75,1.562,-19.25,1.562,-19.25,1.562C-19.25,1.562,-19.25,-4.438,-19.25,-4.438C-19.25,-4.438,-21.75,-4.438,-21.75,-4.438C-21.75,-4.438,-21.75,-6.937,-21.75,-6.937Z" /></g></g><g transform="matrix(1,0,0,1,191,141.625)" id="i8"><g id="i8"><rect ry="26" rx="26" height="174" width="382" y="-87" x="-191" fill="url(#i3)" /></g></g><g transform="matrix(1,0,0,1,191,140.625)" id="i9"><g id="i9"><rect ry="18" rx="18" height="160" width="368" y="-80" x="-184" fill="url(#i4)" /></g></g></g><clipPath id="i10"><rect height="80" width="80" y="0" x="0" /></clipPath><linearGradient id="i11" gradientUnits="userSpaceOnUse" spreadMethod="pad" x2="0" y2="40" x1="0" y1="-40"><stop offset="0%" stop-color="#5a547a" /><stop offset="50%" stop-color="#504970" /><stop offset="100%" stop-color="#453f67" /></linearGradient><linearGradient id="i12" gradientUnits="userSpaceOnUse" spreadMethod="pad" x2="0" y2="35" x1="0" y1="-35"><stop offset="0%" stop-color="#191629" /><stop offset="50%" stop-color="#100d1d" /><stop offset="100%" stop-color="#060510" /></linearGradient><g id="i13"><g transform="matrix(1,0,0,1,40,40)" id="i14"><g id="i14"><rect height="80" width="80" y="-40" x="-40" /></g></g><g transform="matrix(1,0,0,1,40,43.051)" id="i15"><g id="i15"><path fill="#000000" d="M14,-40C16.209,-40,18,-38.209,18,-36C18,-36,18,-22,18,-22C18,-19.791,19.791,-18,22,-18C22,-18,36,-18,36,-18C38.209,-18,40,-16.209,40,-14C40,-14,40,14,40,14C40,16.209,38.209,18,36,18C36,18,22,18,22,18C19.791,18,18,19.791,18,22C18,22,18,36,18,36C18,38.209,16.209,40,14,40C14,40,-14,40,-14,40C-16.209,40,-18,38.209,-18,36C-18,36,-18,22,-18,22C-18,19.791,-19.791,18,-22,18C-22,18,-36,18,-36,18C-38.209,18,-40,16.209,-40,14C-40,14,-40,-14,-40,-14C-40,-16.209,-38.209,-18,-36,-18C-36,-18,-22,-18,-22,-18C-19.791,-18,-18,-19.791,-18,-22C-18,-22,-18,-36,-18,-36C-18,-38.209,-16.209,-40,-14,-40C-14,-40,14,-40,14,-40Z" /></g></g><g transform="matrix(1,0,0,1,40,40.051)" id="i16"><g id="i16"><path fill="url(#i11)" d="M14,-40C16.209,-40,18,-38.209,18,-36C18,-36,18,-22,18,-22C18,-19.791,19.791,-18,22,-18C22,-18,36,-18,36,-18C38.209,-18,40,-16.209,40,-14C40,-14,40,14,40,14C40,16.209,38.209,18,36,18C36,18,22,18,22,18C19.791,18,18,19.791,18,22C18,22,18,36,18,36C18,38.209,16.209,40,14,40C14,40,-14,40,-14,40C-16.209,40,-18,38.209,-18,36C-18,36,-18,22,-18,22C-18,19.791,-19.791,18,-22,18C-22,18,-36,18,-36,18C-38.209,18,-40,16.209,-40,14C-40,14,-40,-14,-40,-14C-40,-16.209,-38.209,-18,-36,-18C-36,-18,-22,-18,-22,-18C-19.791,-18,-18,-19.791,-18,-22C-18,-22,-18,-36,-18,-36C-18,-38.209,-16.209,-40,-14,-40C-14,-40,14,-40,14,-40Z" /></g></g><g transform="matrix(1,0,0,1,40,42.068)" id="i17"><g id="i17"><path fill="#000000" d="M8,-35C10.761,-35,13,-32.761,13,-30C13,-30,13,-18,13,-18C13,-15.239,15.239,-13,18,-13C18,-13,30,-13,30,-13C32.761,-13,35,-10.761,35,-8C35,-8,35,8,35,8C35,10.761,32.761,13,30,13C30,13,18,13,18,13C15.239,13,13,15.239,13,18C13,18,13,30,13,30C13,32.761,10.761,35,8,35C8,35,-8,35,-8,35C-10.761,35,-13,32.761,-13,30C-13,30,-13,18,-13,18C-13,15.239,-15.239,13,-18,13C-18,13,-30,13,-30,13C-32.761,13,-35,10.761,-35,8C-35,8,-35,-8,-35,-8C-35,-10.761,-32.761,-13,-30,-13C-30,-13,-18,-13,-18,-13C-15.239,-13,-13,-15.239,-13,-18C-13,-18,-13,-30,-13,-30C-13,-32.761,-10.761,-35,-8,-35C-8,-35,8,-35,8,-35Z" /></g></g><g transform="matrix(1,0,0,1,40,40)" id="i18"><g id="i18"><path fill="url(#i12)" d="M8,-34.971C10.761,-34.971,13,-32.732,13,-29.971C13,-29.971,13,-17.996,13,-17.996C13,-15.235,15.239,-12.996,18,-12.996C18,-12.996,30,-12.996,30,-12.996C32.761,-12.996,35,-10.757,35,-7.996C35,-7.996,35,8.004,35,8.004C35,10.765,32.761,13.004,30,13.004C30,13.004,18,13.004,18,13.004C15.239,13.004,13,15.243,13,18.004C13,18.004,13,30.042,13,30.042C13,32.803,10.761,35.038,8,35.038C8,35.038,-8,35.038,-8,35.038C-10.761,35.038,-13,32.799,-13,30.038C-13,30.038,-13,18.004,-13,18.004C-13,15.243,-15.239,13.004,-18,13.004C-18,13.004,-30,13.004,-30,13.004C-32.761,13.004,-35,10.765,-35,8.004C-35,8.004,-35,-7.996,-35,-7.996C-35,-10.757,-32.761,-12.996,-30,-12.996C-30,-12.996,-18,-12.996,-18,-12.996C-15.239,-12.996,-13,-15.235,-13,-17.996C-13,-17.996,-13,-29.971,-13,-29.971C-13,-32.732,-10.761,-34.971,-8,-34.971C-8,-34.971,8,-34.971,8,-34.971Z" /></g></g><g transform="matrix(1,0,0,1,40,40.027)" id="i19"><g id="i19"><ellipse ry="9" rx="9" cy="0" cx="0" fill="#5a547a" /></g></g><g transform="matrix(1,0,0,1,62.293,40.036)" id="i20"><g id="i20"><path fill="#5a547a" d="M8,0.707C8,0.707,2.561,6.146,2.561,6.146C2.246,6.461,1.707,6.238,1.707,5.793C1.707,5.793,1.707,5,1.707,5C1.707,4.448,1.259,4,0.707,4C0.707,4,-7.293,4,-7.293,4C-7.845,4,-8.293,3.552,-8.293,3C-8.293,3,-8.293,-3,-8.293,-3C-8.293,-3.552,-7.845,-4,-7.293,-4C-7.293,-4,0.707,-4,0.707,-4C1.259,-4,1.707,-4.448,1.707,-5C1.707,-5,1.707,-5.793,1.707,-5.793C1.707,-6.238,2.246,-6.461,2.561,-6.146C2.561,-6.146,8,-0.707,8,-0.707C8.391,-0.316,8.391,0.316,8,0.707Z" /></g></g><g transform="matrix(1,0,0,1,17.707,40.036)" id="i20"><g id="i20"><path fill="#5a547a" d="M-8,0.707C-8,0.707,-2.561,6.146,-2.561,6.146C-2.246,6.461,-1.707,6.238,-1.707,5.793C-1.707,5.793,-1.707,5,-1.707,5C-1.707,4.448,-1.259,4,-0.707,4C-0.707,4,7.293,4,7.293,4C7.845,4,8.293,3.552,8.293,3C8.293,3,8.293,-3,8.293,-3C8.293,-3.552,7.845,-4,7.293,-4C7.293,-4,-0.707,-4,-0.707,-4C-1.259,-4,-1.707,-4.448,-1.707,-5C-1.707,-5,-1.707,-5.793,-1.707,-5.793C-1.707,-6.238,-2.246,-6.461,-2.561,-6.146C-2.561,-6.146,-8,-0.707,-8,-0.707C-8.391,-0.316,-8.391,0.316,-8,0.707Z" /></g></g><g transform="matrix(1,0,0,1,40,17.743)" id="i20"><g id="i20"><path fill="#5a547a" d="M-0.707,-8C-0.707,-8,-6.146,-2.561,-6.146,-2.561C-6.461,-2.246,-6.238,-1.707,-5.793,-1.707C-5.793,-1.707,-5,-1.707,-5,-1.707C-4.448,-1.707,-4,-1.259,-4,-0.707C-4,-0.707,-4,7.293,-4,7.293C-4,7.845,-3.552,8.293,-3,8.293C-3,8.293,3,8.293,3,8.293C3.552,8.293,4,7.845,4,7.293C4,7.293,4,-0.707,4,-0.707C4,-1.259,4.448,-1.707,5,-1.707C5,-1.707,5.793,-1.707,5.793,-1.707C6.238,-1.707,6.461,-2.246,6.146,-2.561C6.146,-2.561,0.707,-8,0.707,-8C0.316,-8.391,-0.316,-8.391,-0.707,-8Z" /></g></g><g id="i20"><g transform="translate(40,62.293)"><animateTransform repeatCount="indefinite" type="translate" attributeName="transform" dur="0.2s" begin="0s" calcMode="spline" values="40 62.293; 40 62.293; 40 62.793; 40 62.293" keyTimes="0; 0.166665; 1; 1" keySplines="0 0 1 1; 0 0 1 1; 0 0 1 1" fill="freeze" /><g transform="scale(1,1) translate(0,0)"><g id="i20"><path fill="#5a547a" d="M4,0.707C4,1.259,4.448,1.707,5,1.707C5,1.707,5.793,1.707,5.793,1.707C6.238,1.707,6.461,2.246,6.146,2.561C6.146,2.561,0.707,8,0.707,8C0.316,8.391,-0.316,8.391,-0.707,8C-0.707,8,-6.146,2.561,-6.146,2.561C-6.461,2.246,-6.238,1.707,-5.793,1.707C-5.793,1.707,-5,1.707,-5,1.707C-4.448,1.707,-4,1.259,-4,0.707C-4,0.707,-4,-7.293,-4,-7.293C-4,-7.845,-3.552,-8.293,-3,-8.293C-3,-8.293,3,-8.293,3,-8.293C3.552,-8.293,4,-7.845,4,-7.293C4,-7.293,4,0.707,4,0.707Z" /></g></g></g></g></g><clipPath id="i21"><rect height="46" width="42" y="0" x="0" /></clipPath><linearGradient id="i22" gradientUnits="userSpaceOnUse" spreadMethod="pad" x2="0" y2="21" x1="0" y1="-21"><stop offset="0%" stop-color="#5a547a" /><stop offset="50%" stop-color="#504970" /><stop offset="100%" stop-color="#453f67" /></linearGradient><linearGradient id="i23" gradientUnits="userSpaceOnUse" spreadMethod="pad" x2="0" y2="16" x1="0" y1="-16"><stop offset="0%" stop-color="#191629" /><stop offset="50%" stop-color="#100d1d" /><stop offset="100%" stop-color="#060510" /></linearGradient><g id="i24"><g transform="matrix(1,0,0,1,21,23)" id="i25"><g id="i25"><rect height="46" width="42" y="-23" x="-21" /></g></g><g transform="matrix(1,0,0,1,21,25)" id="i26"><g id="i26"><ellipse ry="21" rx="21" cy="0" cx="0" fill="#000000" /></g></g><g transform="matrix(1,0,0,1,21,21)" id="i27"><g id="i27"><ellipse ry="21" rx="21" cy="0" cx="0" fill="url(#i22)" /></g></g><g transform="matrix(1,0,0,1,5,5)" id="i28"><g transform="matrix(1,0,0,1,16,18)" opacity="0.4" id="i29"><g id="i29"><ellipse ry="16" rx="16" cy="0" cx="0" fill="#000000" /></g></g></g><g transform="matrix(1,0,0,1,5,5)" id="i28"><g transform="matrix(1,0,0,1,16,16)" id="i30"><g id="i30"><ellipse ry="16" rx="16" cy="0" cx="0" fill="url(#i23)" /></g></g></g><g transform="matrix(1,0,0,1,5,5)" id="i28" /><g transform="matrix(1,0,0,1,21.612,21.182)" id="i25"><g id="i25"><path fill="#595279" fill-rule="evenodd" d="M-0.157,-0.924C-0.157,-0.924,-2.373,-0.924,-2.373,-0.924C-2.373,-0.924,-2.373,-4.335,-2.373,-4.335C-2.373,-4.335,-0.109,-4.335,-0.109,-4.335C0.551,-4.335,1.048,-4.18,1.382,-3.87C1.72,-3.56,1.89,-3.165,1.89,-2.686C1.89,-2.324,1.799,-2.011,1.618,-1.745C1.441,-1.483,1.197,-1.28,0.887,-1.135C0.577,-0.994,0.229,-0.924,-0.157,-0.924ZM0.036,4.31C0.036,4.31,-2.373,4.31,-2.373,4.31C-2.373,4.31,-2.373,0.688,-2.373,0.688C-2.373,0.688,0.097,0.688,0.097,0.688C0.56,0.688,0.958,0.775,1.292,0.948C1.626,1.117,1.884,1.35,2.065,1.648C2.246,1.942,2.336,2.272,2.336,2.638C2.336,3.129,2.155,3.532,1.793,3.846C1.435,4.156,0.849,4.31,0.036,4.31ZM-4.612,-6.182C-4.612,-6.182,-4.612,6.182,-4.612,6.182C-4.612,6.182,0.392,6.182,0.392,6.182C1.338,6.182,2.123,6.035,2.747,5.741C3.371,5.447,3.837,5.047,4.147,4.54C4.457,4.029,4.612,3.453,4.612,2.813C4.612,2.185,4.484,1.65,4.226,1.207C3.968,0.764,3.636,0.422,3.23,0.181C2.828,-0.064,2.407,-0.199,1.968,-0.223C1.968,-0.223,1.968,-0.344,1.968,-0.344C2.37,-0.441,2.735,-0.6,3.061,-0.821C3.387,-1.042,3.646,-1.33,3.839,-1.684C4.032,-2.042,4.129,-2.473,4.129,-2.976C4.129,-3.588,3.981,-4.135,3.683,-4.618C3.389,-5.101,2.944,-5.481,2.348,-5.759C1.756,-6.041,1.014,-6.182,0.121,-6.182C0.121,-6.182,-4.612,-6.182,-4.612,-6.182Z" /></g></g></g><linearGradient id="i31" gradientUnits="userSpaceOnUse" spreadMethod="pad" x2="0" y2="21" x1="0" y1="-21"><stop offset="0%" stop-color="#5a547a" /><stop offset="50%" stop-color="#504970" /><stop offset="100%" stop-color="#453f67" /></linearGradient><linearGradient id="i32" gradientUnits="userSpaceOnUse" spreadMethod="pad" x2="0" y2="16" x1="0" y1="-16"><stop offset="0%" stop-color="#191629" /><stop offset="50%" stop-color="#100d1d" /><stop offset="100%" stop-color="#060510" /></linearGradient><g id="i33"><g transform="matrix(1,0,0,1,21,23)" id="i34"><g id="i34"><rect height="46" width="42" y="-23" x="-21" /></g></g><g transform="matrix(1,0,0,1,21,25)" id="i26"><g id="i26"><ellipse ry="21" rx="21" cy="0" cx="0" fill="#000000" /></g></g><g transform="matrix(1,0,0,1,21,21)" id="i35"><g id="i35"><ellipse ry="21" rx="21" cy="0" cx="0" fill="url(#i31)" /></g></g><g transform="matrix(1,0,0,1,5,5)" id="i36"><g transform="matrix(1,0,0,1,16,18)" opacity="0.4" id="i26"><g id="i26"><ellipse ry="16" rx="16" cy="0" cx="0" fill="#000000" /></g></g></g><g transform="matrix(1,0,0,1,5,5)" id="i36"><g transform="matrix(1,0,0,1,16,16)" id="i37"><g id="i37"><ellipse ry="16" rx="16" cy="0" cx="0" fill="url(#i32)" /></g></g></g><g transform="matrix(1,0,0,1,5,5)" id="i36" /><g transform="matrix(1,0,0,1,20.738,20.818)" id="i34"><g id="i34"><path fill="#595279" fill-rule="evenodd" d="M3.251,1.334C3.251,1.334,-3.269,1.334,-3.269,1.334C-3.269,1.334,-3.269,3.133,-3.269,3.133C-3.269,3.133,3.251,3.133,3.251,3.133C3.251,3.133,3.251,1.334,3.251,1.334ZM-5.738,6.182C-5.738,6.182,-3.347,6.182,-3.347,6.182C-3.347,6.182,-0.051,-3.646,-0.051,-3.646C-0.051,-3.646,0.045,-3.646,0.045,-3.646C0.045,-3.646,3.347,6.182,3.347,6.182C3.347,6.182,5.738,6.182,5.738,6.182C5.738,6.182,1.379,-6.182,1.379,-6.182C1.379,-6.182,-1.385,-6.182,-1.385,-6.182C-1.385,-6.182,-5.738,6.182,-5.738,6.182Z" /></g></g></g><clipPath id="i38"><rect height="56" width="109" y="0" x="0" /></clipPath><linearGradient id="i39" gradientUnits="userSpaceOnUse" spreadMethod="pad" x2="0" y2="19" x1="0" y1="-19"><stop offset="0%" stop-color="#5a547a" /><stop offset="50%" stop-color="#504970" /><stop offset="100%" stop-color="#453f67" /></linearGradient><linearGradient id="i40" gradientUnits="userSpaceOnUse" spreadMethod="pad" x2="0" y2="6.5" x1="0" y1="-6.5"><stop offset="0%" stop-color="#191629" /><stop offset="50%" stop-color="#0d0b17" /><stop offset="100%" stop-color="#010005" /></linearGradient><linearGradient id="i41" gradientUnits="userSpaceOnUse" spreadMethod="pad" x2="0" y2="6.5" x1="0" y1="-6.5"><stop offset="0%" stop-color="#191629" /><stop offset="50%" stop-color="#100d1d" /><stop offset="100%" stop-color="#060510" /></linearGradient><g id="i42"><g transform="matrix(1,0,0,1,54.5,27.949)" id="i43"><g id="i43"><rect height="55.898" width="109" y="-27.949" x="-54.5" /></g></g><g transform="matrix(1,0,0,1,54.5,36.898)" id="i44"><g id="i44"><rect ry="140" rx="140" height="38" width="109" y="-19" x="-54.5" fill="url(#i39)" /></g></g><g transform="matrix(1,0,0,1,29,39.398)" opacity="0.4" id="i45"><g id="i45"><rect ry="30" rx="30" height="13" width="32" y="-6.5" x="-16" fill="#000000" /></g></g><g transform="matrix(1,0,0,1,80,39.398)" opacity="0.4" id="i46"><g id="i46"><rect ry="30" rx="30" height="13" width="32" y="-6.5" x="-16" fill="#000000" /></g></g><g transform="matrix(1,0,0,1,29,37.398)" id="i47"><g id="i47"><rect ry="30" rx="30" height="13" width="32" y="-6.5" x="-16" fill="url(#i40)" /></g></g><g transform="matrix(1,0,0,1,80,37.398)" id="i48"><g id="i48"><rect ry="30" rx="30" height="13" width="32" y="-6.5" x="-16" fill="url(#i41)" /></g></g><g transform="matrix(1,0,0,1,29.095,3)" id="i49"><g id="i49"><path fill="#595279" fill-rule="evenodd" d="M10.276,-2.92C10.276,-2.92,10.276,-2.295,10.276,-2.295C10.276,-2.295,12.106,-2.295,12.106,-2.295C12.106,-2.295,12.106,2.898,12.106,2.898C12.106,2.898,12.81,2.898,12.81,2.898C12.81,2.898,12.81,-2.295,12.81,-2.295C12.81,-2.295,14.64,-2.295,14.64,-2.295C14.64,-2.295,14.64,-2.92,14.64,-2.92C14.64,-2.92,10.276,-2.92,10.276,-2.92ZM8.751,-1.102C8.751,-1.102,9.456,-1.102,9.456,-1.102C9.403,-1.401,9.306,-1.668,9.166,-1.901C9.026,-2.136,8.851,-2.334,8.643,-2.497C8.435,-2.662,8.201,-2.787,7.942,-2.872C7.684,-2.957,7.409,-3,7.115,-3C6.619,-3,6.177,-2.878,5.791,-2.636C5.405,-2.394,5.101,-2.049,4.879,-1.602C4.657,-1.155,4.547,-0.625,4.547,-0.011C4.547,0.603,4.657,1.133,4.879,1.58C5.101,2.027,5.405,2.372,5.791,2.614C6.177,2.856,6.619,2.977,7.115,2.977C7.409,2.977,7.684,2.934,7.942,2.849C8.201,2.764,8.435,2.64,8.643,2.477C8.851,2.312,9.026,2.113,9.166,1.878C9.306,1.643,9.403,1.377,9.456,1.08C9.456,1.08,8.751,1.08,8.751,1.08C8.709,1.281,8.637,1.459,8.533,1.614C8.431,1.767,8.306,1.897,8.158,2.003C8.012,2.107,7.85,2.186,7.672,2.239C7.494,2.292,7.308,2.318,7.115,2.318C6.763,2.318,6.444,2.229,6.158,2.051C5.874,1.873,5.648,1.611,5.479,1.264C5.312,0.917,5.229,0.493,5.229,-0.011C5.229,-0.515,5.312,-0.94,5.479,-1.287C5.648,-1.634,5.874,-1.896,6.158,-2.074C6.444,-2.252,6.763,-2.341,7.115,-2.341C7.308,-2.341,7.494,-2.314,7.672,-2.261C7.85,-2.208,8.012,-2.129,8.158,-2.023C8.306,-1.919,8.431,-1.789,8.533,-1.636C8.637,-1.483,8.709,-1.305,8.751,-1.102ZM-0.007,-2.92C-0.007,-2.92,-0.007,2.898,-0.007,2.898C-0.007,2.898,3.55,2.898,3.55,2.898C3.55,2.898,3.55,2.273,3.55,2.273C3.55,2.273,0.697,2.273,0.697,2.273C0.697,2.273,0.697,0.295,0.697,0.295C0.697,0.295,3.322,0.295,3.322,0.295C3.322,0.295,3.322,-0.33,3.322,-0.33C3.322,-0.33,0.697,-0.33,0.697,-0.33C0.697,-0.33,0.697,-2.295,0.697,-2.295C0.697,-2.295,3.504,-2.295,3.504,-2.295C3.504,-2.295,3.504,-2.92,3.504,-2.92C3.504,-2.92,-0.007,-2.92,-0.007,-2.92ZM-4.507,-2.92C-4.507,-2.92,-4.507,2.898,-4.507,2.898C-4.507,2.898,-1.098,2.898,-1.098,2.898C-1.098,2.898,-1.098,2.273,-1.098,2.273C-1.098,2.273,-3.803,2.273,-3.803,2.273C-3.803,2.273,-3.803,-2.92,-3.803,-2.92C-3.803,-2.92,-4.507,-2.92,-4.507,-2.92ZM-9.288,-2.92C-9.288,-2.92,-9.288,2.898,-9.288,2.898C-9.288,2.898,-5.732,2.898,-5.732,2.898C-5.732,2.898,-5.732,2.273,-5.732,2.273C-5.732,2.273,-8.584,2.273,-8.584,2.273C-8.584,2.273,-8.584,0.295,-8.584,0.295C-8.584,0.295,-5.959,0.295,-5.959,0.295C-5.959,0.295,-5.959,-0.33,-5.959,-0.33C-5.959,-0.33,-8.584,-0.33,-8.584,-0.33C-8.584,-0.33,-8.584,-2.295,-8.584,-2.295C-8.584,-2.295,-5.777,-2.295,-5.777,-2.295C-5.777,-2.295,-5.777,-2.92,-5.777,-2.92C-5.777,-2.92,-9.288,-2.92,-9.288,-2.92ZM-11.623,-2.136C-11.381,-1.977,-11.242,-1.754,-11.208,-1.466C-11.208,-1.466,-10.526,-1.466,-10.526,-1.466C-10.535,-1.76,-10.627,-2.022,-10.799,-2.253C-10.969,-2.484,-11.2,-2.665,-11.492,-2.798C-11.784,-2.932,-12.117,-3,-12.492,-3C-12.863,-3,-13.2,-2.931,-13.501,-2.795C-13.8,-2.661,-14.039,-2.471,-14.217,-2.227C-14.393,-1.985,-14.481,-1.701,-14.481,-1.375C-14.481,-0.983,-14.348,-0.665,-14.083,-0.423C-13.818,-0.181,-13.459,0.005,-13.004,0.136C-13.004,0.136,-12.288,0.341,-12.288,0.341C-12.083,0.398,-11.893,0.464,-11.717,0.54C-11.541,0.616,-11.398,0.714,-11.29,0.835C-11.182,0.956,-11.129,1.114,-11.129,1.307C-11.129,1.519,-11.191,1.705,-11.316,1.864C-11.441,2.021,-11.611,2.144,-11.825,2.233C-12.039,2.32,-12.28,2.364,-12.549,2.364C-12.78,2.364,-12.996,2.329,-13.197,2.261C-13.396,2.191,-13.56,2.085,-13.691,1.943C-13.82,1.799,-13.894,1.618,-13.913,1.398C-13.913,1.398,-14.64,1.398,-14.64,1.398C-14.617,1.716,-14.519,1.995,-14.347,2.236C-14.173,2.477,-13.934,2.664,-13.631,2.798C-13.326,2.932,-12.966,3,-12.549,3C-12.102,3,-11.722,2.926,-11.41,2.776C-11.096,2.626,-10.857,2.424,-10.694,2.17C-10.529,1.916,-10.447,1.632,-10.447,1.318C-10.447,1.045,-10.502,0.816,-10.614,0.628C-10.726,0.44,-10.868,0.287,-11.04,0.168C-11.21,0.047,-11.389,-0.049,-11.577,-0.119C-11.763,-0.189,-11.931,-0.244,-12.083,-0.284C-12.083,-0.284,-12.674,-0.443,-12.674,-0.443C-12.782,-0.471,-12.9,-0.509,-13.029,-0.554C-13.158,-0.601,-13.281,-0.661,-13.398,-0.733C-13.515,-0.807,-13.612,-0.899,-13.688,-1.009C-13.762,-1.121,-13.799,-1.254,-13.799,-1.409C-13.799,-1.595,-13.746,-1.76,-13.64,-1.906C-13.532,-2.052,-13.382,-2.167,-13.191,-2.25C-12.998,-2.333,-12.773,-2.375,-12.515,-2.375C-12.163,-2.375,-11.865,-2.295,-11.623,-2.136Z" /></g></g><g transform="matrix(1,0,0,1,79.641,3)" id="i50"><g id="i50"><path fill="#595279" fill-rule="evenodd" d="M7.823,-2.92C7.823,-2.92,7.823,-2.295,7.823,-2.295C7.823,-2.295,9.653,-2.295,9.653,-2.295C9.653,-2.295,9.653,2.898,9.653,2.898C9.653,2.898,10.357,2.898,10.357,2.898C10.357,2.898,10.357,-2.295,10.357,-2.295C10.357,-2.295,12.187,-2.295,12.187,-2.295C12.187,-2.295,12.187,-2.92,12.187,-2.92C12.187,-2.92,7.823,-2.92,7.823,-2.92ZM7.195,2.898C7.195,2.898,5.763,0.284,5.763,0.284C5.763,0.284,4.967,0.284,4.967,0.284C4.967,0.284,6.376,2.898,6.376,2.898C6.376,2.898,7.195,2.898,7.195,2.898ZM3.024,-2.92C3.024,-2.92,3.024,2.898,3.024,2.898C3.024,2.898,3.729,2.898,3.729,2.898C3.729,2.898,3.729,-2.295,3.729,-2.295C3.729,-2.295,4.967,-2.295,4.967,-2.295C5.281,-2.295,5.535,-2.248,5.726,-2.151C5.917,-2.056,6.056,-1.921,6.143,-1.747C6.23,-1.573,6.274,-1.369,6.274,-1.136C6.274,-0.903,6.23,-0.703,6.143,-0.534C6.058,-0.367,5.92,-0.239,5.729,-0.148C5.54,-0.057,5.29,-0.011,4.979,-0.011C4.979,-0.011,3.411,-0.011,3.411,-0.011C3.411,-0.011,3.411,0.625,3.411,0.625C3.411,0.625,5.001,0.625,5.001,0.625C5.452,0.625,5.822,0.551,6.112,0.401C6.402,0.249,6.617,0.041,6.757,-0.224C6.897,-0.489,6.967,-0.793,6.967,-1.136C6.967,-1.479,6.897,-1.785,6.757,-2.054C6.617,-2.323,6.401,-2.535,6.109,-2.688C5.817,-2.843,5.445,-2.92,4.99,-2.92C4.99,-2.92,3.024,-2.92,3.024,-2.92ZM1.107,0.625C1.107,0.625,-1.871,0.625,-1.871,0.625C-1.871,0.625,-1.871,1.25,-1.871,1.25C-1.871,1.25,1.107,1.25,1.107,1.25C1.107,1.25,1.107,0.625,1.107,0.625ZM-2.882,2.898C-2.882,2.898,-2.143,2.898,-2.143,2.898C-2.143,2.898,-0.405,-2,-0.405,-2C-0.405,-2,-0.359,-2,-0.359,-2C-0.359,-2,1.379,2.898,1.379,2.898C1.379,2.898,2.118,2.898,2.118,2.898C2.118,2.898,-0.018,-2.92,-0.018,-2.92C-0.018,-2.92,-0.746,-2.92,-0.746,-2.92C-0.746,-2.92,-2.882,2.898,-2.882,2.898ZM-7.153,-2.92C-7.153,-2.92,-7.153,-2.295,-7.153,-2.295C-7.153,-2.295,-5.324,-2.295,-5.324,-2.295C-5.324,-2.295,-5.324,2.898,-5.324,2.898C-5.324,2.898,-4.619,2.898,-4.619,2.898C-4.619,2.898,-4.619,-2.295,-4.619,-2.295C-4.619,-2.295,-2.79,-2.295,-2.79,-2.295C-2.79,-2.295,-2.79,-2.92,-2.79,-2.92C-2.79,-2.92,-7.153,-2.92,-7.153,-2.92ZM-9.17,-2.136C-8.928,-1.977,-8.789,-1.754,-8.755,-1.466C-8.755,-1.466,-8.073,-1.466,-8.073,-1.466C-8.082,-1.76,-8.174,-2.022,-8.346,-2.253C-8.516,-2.484,-8.747,-2.665,-9.039,-2.798C-9.331,-2.932,-9.664,-3,-10.039,-3C-10.41,-3,-10.747,-2.931,-11.048,-2.795C-11.347,-2.661,-11.585,-2.471,-11.763,-2.227C-11.939,-1.985,-12.028,-1.701,-12.028,-1.375C-12.028,-0.983,-11.895,-0.665,-11.63,-0.423C-11.365,-0.181,-11.005,0.005,-10.55,0.136C-10.55,0.136,-9.835,0.341,-9.835,0.341C-9.63,0.398,-9.439,0.464,-9.263,0.54C-9.087,0.616,-8.945,0.714,-8.837,0.835C-8.729,0.956,-8.675,1.114,-8.675,1.307C-8.675,1.519,-8.738,1.705,-8.863,1.864C-8.988,2.021,-9.157,2.144,-9.371,2.233C-9.585,2.32,-9.827,2.364,-10.096,2.364C-10.327,2.364,-10.543,2.329,-10.744,2.261C-10.943,2.191,-11.107,2.085,-11.238,1.943C-11.367,1.799,-11.441,1.618,-11.46,1.398C-11.46,1.398,-12.187,1.398,-12.187,1.398C-12.164,1.716,-12.066,1.995,-11.894,2.236C-11.72,2.477,-11.481,2.664,-11.178,2.798C-10.873,2.932,-10.513,3,-10.096,3C-9.649,3,-9.269,2.926,-8.957,2.776C-8.643,2.626,-8.404,2.424,-8.241,2.17C-8.076,1.916,-7.994,1.632,-7.994,1.318C-7.994,1.045,-8.049,0.816,-8.161,0.628C-8.273,0.44,-8.415,0.287,-8.587,0.168C-8.757,0.047,-8.936,-0.049,-9.124,-0.119C-9.31,-0.189,-9.478,-0.244,-9.63,-0.284C-9.63,-0.284,-10.221,-0.443,-10.221,-0.443C-10.329,-0.471,-10.447,-0.509,-10.576,-0.554C-10.705,-0.601,-10.828,-0.661,-10.945,-0.733C-11.062,-0.807,-11.159,-0.899,-11.235,-1.009C-11.309,-1.121,-11.346,-1.254,-11.346,-1.409C-11.346,-1.595,-11.293,-1.76,-11.187,-1.906C-11.079,-2.052,-10.929,-2.167,-10.738,-2.25C-10.545,-2.333,-10.32,-2.375,-10.062,-2.375C-9.71,-2.375,-9.412,-2.295,-9.17,-2.136Z" /></g></g></g><clipPath id="i51"><rect height="60" width="91" y="0" x="0" /></clipPath><clipPath id="i52"><rect height="42" width="91" y="0" x="0" /></clipPath><linearGradient id="i53" gradientUnits="userSpaceOnUse" spreadMethod="pad" x2="0" y2="21" x1="0" y1="-21"><stop offset="0%" stop-color="#5a547a" /><stop offset="50%" stop-color="#504970" /><stop offset="100%" stop-color="#453f67" /></linearGradient><linearGradient id="i54" gradientUnits="userSpaceOnUse" spreadMethod="pad" x2="0" y2="16" x1="0" y1="-16"><stop offset="0%" stop-color="#a63117" /><stop offset="50%" stop-color="#872810" /><stop offset="100%" stop-color="#691f08" /></linearGradient><linearGradient id="i55" gradientUnits="userSpaceOnUse" spreadMethod="pad" x2="0" y2="16" x1="0" y1="-16"><stop offset="0%" stop-color="#a63117" /><stop offset="50%" stop-color="#872810" /><stop offset="100%" stop-color="#691f08" /></linearGradient><g id="i56"><g transform="matrix(1,0,0,1,45.5,21)" id="i57"><g id="i57"><rect ry="140" rx="140" height="42" width="91" y="-21" x="-45.5" fill="url(#i53)" /></g></g><g transform="matrix(1,0,0,1,21,24)" opacity="0.4" id="i30"><g id="i30"><ellipse ry="16" rx="16" cy="0" cx="0" fill="#131020" /></g></g><g transform="matrix(1,0,0,1,70,24)" opacity="0.4" id="i35"><g id="i35"><ellipse ry="16" rx="16" cy="0" cx="0" fill="#131020" /></g></g><g transform="matrix(1,0,0,1,21,21)" id="i30"><g id="i30"><ellipse ry="16" rx="16" cy="0" cx="0" fill="url(#i54)" /></g></g><g transform="matrix(1,0,0,1,70,21)" id="i35"><g id="i35"><ellipse ry="16" rx="16" cy="0" cx="0" fill="url(#i55)" /></g></g></g><g id="i58"><g transform="matrix(1,0,0,1,45.5,29.949)" id="i59"><g id="i59"><rect height="59.898" width="91" y="-29.949" x="-45.5" /></g></g><g transform="matrix(1,0,0,1,0,17.898)" id="i60"><g clip-path="url(#i52)"><g transform="matrix(1,0,0,1,45.5,21)"><g><rect ry="140" rx="140" height="42" width="91" y="-21" x="-45.5" fill="url(#i53)" /></g></g><g transform="matrix(1,0,0,1,21,24)" opacity="0.4"><g><ellipse ry="16" rx="16" cy="0" cx="0" fill="#131020" /></g></g><g transform="matrix(1,0,0,1,70,24)" opacity="0.4"><g><ellipse ry="16" rx="16" cy="0" cx="0" fill="#131020" /></g></g><g transform="matrix(1,0,0,1,21,21)"><g><ellipse ry="16" rx="16" cy="0" cx="0" fill="url(#i54)" /></g></g><g transform="matrix(1,0,0,1,70,21)"><g><ellipse ry="16" rx="16" cy="0" cx="0" fill="url(#i55)" /></g></g></g></g><g transform="matrix(1,0,0,1,45.691,3)" id="i61"><g id="i61"><path fill="#595279" fill-rule="evenodd" d="M12.37,-1.287C12.539,-0.94,12.623,-0.515,12.623,-0.011C12.623,0.493,12.539,0.917,12.37,1.264C12.203,1.611,11.977,1.873,11.691,2.051C11.407,2.229,11.089,2.318,10.737,2.318C10.385,2.318,10.065,2.229,9.779,2.051C9.495,1.873,9.269,1.611,9.1,1.264C8.933,0.917,8.85,0.493,8.85,-0.011C8.85,-0.515,8.933,-0.94,9.1,-1.287C9.269,-1.634,9.495,-1.896,9.779,-2.074C10.065,-2.252,10.385,-2.341,10.737,-2.341C11.089,-2.341,11.407,-2.252,11.691,-2.074C11.977,-1.896,12.203,-1.634,12.37,-1.287ZM12.973,1.58C13.195,1.133,13.305,0.603,13.305,-0.011C13.305,-0.625,13.195,-1.155,12.973,-1.602C12.751,-2.049,12.447,-2.394,12.061,-2.636C11.675,-2.878,11.233,-3,10.737,-3C10.241,-3,9.799,-2.878,9.413,-2.636C9.027,-2.394,8.723,-2.049,8.501,-1.602C8.279,-1.155,8.169,-0.625,8.169,-0.011C8.169,0.603,8.279,1.133,8.501,1.58C8.723,2.027,9.027,2.372,9.413,2.614C9.799,2.856,10.241,2.977,10.737,2.977C11.233,2.977,11.675,2.856,12.061,2.614C12.447,2.372,12.751,2.027,12.973,1.58ZM5.204,-0.364C5.204,-0.364,3.897,-0.364,3.897,-0.364C3.897,-0.364,3.897,-2.295,3.897,-2.295C3.897,-2.295,5.227,-2.295,5.227,-2.295C5.613,-2.295,5.896,-2.206,6.074,-2.026C6.252,-1.848,6.341,-1.631,6.341,-1.375C6.341,-1.17,6.289,-0.993,6.187,-0.841C6.087,-0.689,5.95,-0.572,5.778,-0.489C5.608,-0.406,5.416,-0.364,5.204,-0.364ZM5.295,2.273C5.295,2.273,3.897,2.273,3.897,2.273C3.897,2.273,3.897,0.25,3.897,0.25C3.897,0.25,5.329,0.25,5.329,0.25C5.583,0.25,5.802,0.301,5.988,0.403C6.174,0.503,6.317,0.638,6.417,0.807C6.517,0.974,6.568,1.155,6.568,1.352C6.568,1.608,6.47,1.826,6.275,2.006C6.082,2.184,5.755,2.273,5.295,2.273ZM3.193,-2.92C3.193,-2.92,3.193,2.898,3.193,2.898C3.193,2.898,5.295,2.898,5.295,2.898C5.753,2.898,6.126,2.829,6.412,2.693C6.698,2.557,6.906,2.372,7.039,2.139C7.172,1.906,7.238,1.644,7.238,1.352C7.238,1.045,7.177,0.786,7.056,0.574C6.935,0.362,6.785,0.199,6.605,0.085C6.425,-0.029,6.246,-0.091,6.068,-0.102C6.068,-0.102,6.068,-0.159,6.068,-0.159C6.235,-0.204,6.389,-0.274,6.531,-0.369C6.675,-0.464,6.79,-0.593,6.877,-0.756C6.966,-0.919,7.011,-1.125,7.011,-1.375C7.011,-1.659,6.947,-1.918,6.818,-2.151C6.689,-2.386,6.493,-2.572,6.23,-2.71C5.967,-2.85,5.632,-2.92,5.227,-2.92C5.227,-2.92,3.193,-2.92,3.193,-2.92ZM2.246,2.898C2.246,2.898,0.814,0.284,0.814,0.284C0.814,0.284,0.019,0.284,0.019,0.284C0.019,0.284,1.428,2.898,1.428,2.898C1.428,2.898,2.246,2.898,2.246,2.898ZM-1.924,-2.92C-1.924,-2.92,-1.924,2.898,-1.924,2.898C-1.924,2.898,-1.22,2.898,-1.22,2.898C-1.22,2.898,-1.22,-2.295,-1.22,-2.295C-1.22,-2.295,0.019,-2.295,0.019,-2.295C0.333,-2.295,0.586,-2.248,0.777,-2.151C0.968,-2.056,1.108,-1.921,1.195,-1.747C1.282,-1.573,1.326,-1.369,1.326,-1.136C1.326,-0.903,1.282,-0.703,1.195,-0.534C1.11,-0.367,0.971,-0.239,0.78,-0.148C0.591,-0.057,0.341,-0.011,0.03,-0.011C0.03,-0.011,-1.538,-0.011,-1.538,-0.011C-1.538,-0.011,-1.538,0.625,-1.538,0.625C-1.538,0.625,0.053,0.625,0.053,0.625C0.504,0.625,0.874,0.551,1.164,0.401C1.454,0.249,1.669,0.041,1.809,-0.224C1.949,-0.489,2.019,-0.793,2.019,-1.136C2.019,-1.479,1.949,-1.785,1.809,-2.054C1.669,-2.323,1.453,-2.535,1.161,-2.688C0.869,-2.843,0.497,-2.92,0.042,-2.92C0.042,-2.92,-1.924,-2.92,-1.924,-2.92ZM-3.331,-2.92C-3.331,-2.92,-4.036,-2.92,-4.036,-2.92C-4.036,-2.92,-4.036,0.875,-4.036,0.875C-4.036,1.159,-4.098,1.412,-4.223,1.634C-4.346,1.854,-4.524,2.026,-4.757,2.153C-4.99,2.278,-5.269,2.341,-5.593,2.341C-5.917,2.341,-6.195,2.278,-6.428,2.153C-6.659,2.026,-6.837,1.854,-6.962,1.634C-7.087,1.412,-7.15,1.159,-7.15,0.875C-7.15,0.875,-7.15,-2.92,-7.15,-2.92C-7.15,-2.92,-7.854,-2.92,-7.854,-2.92C-7.854,-2.92,-7.854,0.932,-7.854,0.932C-7.854,1.33,-7.762,1.685,-7.576,1.997C-7.388,2.308,-7.125,2.553,-6.786,2.733C-6.447,2.911,-6.049,3,-5.593,3C-5.137,3,-4.739,2.911,-4.4,2.733C-4.061,2.553,-3.799,2.308,-3.613,1.997C-3.425,1.685,-3.331,1.33,-3.331,0.932C-3.331,0.932,-3.331,-2.92,-3.331,-2.92ZM-13.305,-2.92C-13.305,-2.92,-13.305,-2.295,-13.305,-2.295C-13.305,-2.295,-11.475,-2.295,-11.475,-2.295C-11.475,-2.295,-11.475,2.898,-11.475,2.898C-11.475,2.898,-10.771,2.898,-10.771,2.898C-10.771,2.898,-10.771,-2.295,-10.771,-2.295C-10.771,-2.295,-8.941,-2.295,-8.941,-2.295C-8.941,-2.295,-8.941,-2.92,-8.941,-2.92C-8.941,-2.92,-13.305,-2.92,-13.305,-2.92Z" /></g></g><g transform="matrix(1,0,0,1,66.25,8.648)" id="i62"><g id="i62"><path fill="#595279" d="M4.25,-6.25C4.25,-6.25,-4.25,-6.25,-4.25,-6.25C-4.25,-6.25,-4.25,-5.25,-4.25,-5.25C-4.25,-5.25,3.25,-5.25,3.25,-5.25C3.25,-5.25,3.25,6.25,3.25,6.25C3.25,6.25,4.25,6.25,4.25,6.25C4.25,6.25,4.25,-6.25,4.25,-6.25Z" /></g></g><g transform="matrix(-1,0,0,1,24.75,8.648)" id="i63"><g id="i63"><path fill="#595279" d="M4.25,-6.25C4.25,-6.25,-4.25,-6.25,-4.25,-6.25C-4.25,-6.25,-4.25,-5.25,-4.25,-5.25C-4.25,-5.25,3.25,-5.25,3.25,-5.25C3.25,-5.25,3.25,6.25,3.25,6.25C3.25,6.25,4.25,6.25,4.25,6.25C4.25,6.25,4.25,-6.25,4.25,-6.25Z" /></g></g></g><linearGradient id="i64" gradientUnits="userSpaceOnUse" spreadMethod="pad" x2="24.25" y2="42.432" x1="-41.25" y1="-44.068"><stop offset="0%" stop-color="#e49246" /><stop offset="5.7%" stop-color="#d27d38" /><stop offset="11.5%" stop-color="#c06929" /><stop offset="55.7%" stop-color="#a8631f" /><stop offset="100%" stop-color="#8f5e14" /></linearGradient><clipPath id="i65"><rect height="109" width="147" y="0" x="0" /></clipPath><linearGradient id="i66" gradientUnits="userSpaceOnUse" spreadMethod="pad" x2="8.75" y2="54.342" x1="-23.25" y1="-46.158"><stop offset="0%" stop-color="#c27c2a" /><stop stop-opacity="0.5" offset="50%" stop-color="#c28f2a" /><stop stop-opacity="0" offset="100%" stop-color="#c2a12a" /></linearGradient><filter id="i67"><feColorMatrix values="0 0 0 0 1 0 0 0 0 1 0 0 0 0 1 0 0 0 1 0" type="matrix" /></filter><mask height="20000" width="20000" y="-10000" x="-10000" maskContentUnits="userSpaceOnUse" maskUnits="userSpaceOnUse" style="mask-type: alpha" mask-type="alpha" id="i68"><g transform="matrix(-1,0,0,1,99.383,-54.725)"><g filter="url(#i67)" transform="matrix(-1,0,0,1,73.25,54.478)"><g id="i69" fill="#ff0000"><path fill="url(#i66)" d="M73.25,12.842C47.642,-7.741,1.105,-53.91,-0.784,-54.346C-8.784,-56.192,-56.108,-38.116,-65.985,-33.278C-75.066,-25.468,-75.992,-12.539,-66.73,-3.821C-57.468,4.897,-36.945,5.441,-21.689,5.441C-16.362,10.466,-4.071,21.496,2.467,25.419C2.467,25.419,8.823,54.478,8.823,54.478C8.823,54.478,73.25,12.842,73.25,12.842Z" /></g></g></g></mask><g id="i70"><g transform="matrix(1,0,0,1,73.25,54.478)" id="i71"><g id="i71"><rect height="108.955" width="146.5" y="-54.477" x="-73.25" /></g></g><g mask="url(#i68)" transform="matrix(-1,0,0,1,99.383,54.725)" id="i72"><g id="i72"><path fill="#3e2407" d="M5.006,5.676C-0.782,0.02,-4.176,-7.755,-3.897,-10.095C-4.224,-7.35,-7.618,3.256,-0.62,10.095C-0.62,10.095,5.006,5.676,5.006,5.676Z" /></g></g><g display="none" transform="matrix(-1,0,0,1,73.25,54.478)" id="i73"><g id="i69" fill="#ff0000"><path fill="url(#i66)" d="M73.25,12.842C47.642,-7.741,1.105,-53.91,-0.784,-54.346C-8.784,-56.192,-56.108,-38.116,-65.985,-33.278C-75.066,-25.468,-75.992,-12.539,-66.73,-3.821C-57.468,4.897,-36.945,5.441,-21.689,5.441C-16.362,10.466,-4.071,21.496,2.467,25.419C2.467,25.419,8.823,54.478,8.823,54.478C8.823,54.478,73.25,12.842,73.25,12.842Z" /></g></g></g><linearGradient id="i74" gradientUnits="userSpaceOnUse" spreadMethod="pad" x2="0" y2="11.814" x1="0" y1="-11.814"><stop offset="0%" stop-color="#fffbf0" /><stop offset="50%" stop-color="#d9d4c6" /><stop offset="100%" stop-color="#b4ad9b" /></linearGradient><clipPath id="i75"><rect height="203" width="574" y="0" x="0" /></clipPath><linearGradient id="i76" gradientUnits="userSpaceOnUse" spreadMethod="pad" x2="24.25" y2="42.432" x1="-41.25" y1="-44.068"><stop offset="0%" stop-color="#e49246" /><stop offset="5.7%" stop-color="#d27d38" /><stop offset="11.5%" stop-color="#c06929" /><stop offset="55.7%" stop-color="#a8631f" /><stop offset="100%" stop-color="#8f5e14" /></linearGradient><linearGradient id="i77" gradientUnits="userSpaceOnUse" spreadMethod="pad" x2="8.75" y2="54.342" x1="-23.25" y1="-46.158"><stop offset="0%" stop-color="#c27c2a" /><stop stop-opacity="0.5" offset="50%" stop-color="#c28f2a" /><stop stop-opacity="0" offset="100%" stop-color="#c2a12a" /></linearGradient><filter id="i78"><feColorMatrix values="0 0 0 0 1 0 0 0 0 1 0 0 0 0 1 0 0 0 1 0" type="matrix" /></filter><mask height="20000" width="20000" y="-10000" x="-10000" maskContentUnits="userSpaceOnUse" maskUnits="userSpaceOnUse" style="mask-type: alpha" mask-type="alpha" id="i79"><g transform="matrix(1,0,0,1,-47.117,-54.725)"><g filter="url(#i78)" transform="matrix(1,0,0,1,73.25,54.478)"><g id="i69" fill="#ff0000"><path fill="url(#i77)" d="M-0.784,-54.346C1.105,-53.91,47.642,-7.741,73.25,12.842C73.25,12.842,8.823,54.478,8.823,54.478C8.823,54.478,2.467,25.419,2.467,25.419C-4.071,21.496,-16.362,10.466,-21.689,5.441C-36.945,5.441,-57.468,4.897,-66.73,-3.821C-75.992,-12.539,-75.066,-25.468,-65.985,-33.278C-56.108,-38.116,-8.784,-56.192,-0.784,-54.346Z" /></g></g></g></mask><g id="i80"><g transform="matrix(1,0,0,1,73.25,54.478)" id="i81"><g id="i81"><rect height="108.955" width="146.5" y="-54.477" x="-73.25" /></g></g><g mask="url(#i79)" transform="matrix(1,0,0,1,47.117,54.725)" id="i72"><g id="i72"><path fill="#3e2407" d="M5.006,5.676C-0.782,0.02,-4.176,-7.755,-3.897,-10.095C-4.224,-7.35,-7.618,3.256,-0.62,10.095C-0.62,10.095,5.006,5.676,5.006,5.676Z" /></g></g><g display="none" transform="matrix(1,0,0,1,73.25,54.478)" id="i73"><g id="i69" fill="#ff0000"><path fill="url(#i77)" d="M-0.784,-54.346C1.105,-53.91,47.642,-7.741,73.25,12.842C73.25,12.842,8.823,54.478,8.823,54.478C8.823,54.478,2.467,25.419,2.467,25.419C-4.071,21.496,-16.362,10.466,-21.689,5.441C-36.945,5.441,-57.468,4.897,-66.73,-3.821C-75.992,-12.539,-75.066,-25.468,-65.985,-33.278C-56.108,-38.116,-8.784,-56.192,-0.784,-54.346Z" /></g></g></g><linearGradient id="i82" gradientUnits="userSpaceOnUse" spreadMethod="pad" x2="0" y2="11.814" x1="0" y1="-11.814"><stop offset="0%" stop-color="#fffbf0" /><stop offset="50%" stop-color="#d9d4c6" /><stop offset="100%" stop-color="#b4ad9b" /></linearGradient><g id="i83"><g transform="matrix(1,0,0,1,483.252,191.568)" id="i84"><g id="i84"><path d="M-1.147,-54.437C0.742,-54.001,47.642,-7.651,73.25,12.932C73.25,12.932,8.823,54.568,8.823,54.568C8.823,54.568,2.467,25.509,2.467,25.509C-4.071,21.586,-16.362,10.556,-21.689,5.531C-36.945,5.531,-57.468,4.987,-66.73,-3.731C-75.992,-12.449,-75.066,-25.378,-65.985,-33.188C-56.108,-38.026,-9.147,-56.283,-1.147,-54.437Z" fill="url(#i76)"><animate repeatCount="indefinite" attributeName="d" dur="0.2s" begin="0s" calcMode="spline" values="M-1.147,-54.437C0.742,-54.001,47.642,-7.651,73.25,12.932C73.25,12.932,8.823,54.568,8.823,54.568C8.823,54.568,2.467,25.509,2.467,25.509C-4.071,21.586,-16.362,10.556,-21.689,5.531C-36.945,5.531,-57.468,4.987,-66.73,-3.731C-75.992,-12.449,-75.066,-25.378,-65.985,-33.188C-56.108,-38.026,-9.147,-56.283,-1.147,-54.437Z; M-1.147,-54.437C0.742,-54.001,47.642,-7.651,73.25,12.932C73.25,12.932,8.823,54.568,8.823,54.568C8.823,54.568,2.467,25.509,2.467,25.509C-4.071,21.586,-16.362,10.556,-21.689,5.531C-36.945,5.531,-57.468,4.987,-66.73,-3.731C-75.992,-12.449,-75.066,-25.378,-65.985,-33.188C-56.108,-38.026,-9.147,-56.283,-1.147,-54.437Z; M-1.147,-54.437C0.742,-54.001,47.642,-7.651,73.25,12.932C73.25,12.932,8.823,54.568,8.823,54.568C8.823,54.568,2.467,25.509,2.467,25.509C-4.071,21.586,-16.362,10.556,-21.689,5.531C-36.945,5.531,-57.468,9.987,-66.73,1.269C-75.992,-7.449,-75.066,-20.378,-65.985,-28.188C-56.108,-33.026,-9.147,-56.283,-1.147,-54.437Z; M-1.147,-54.437C0.742,-54.001,47.642,-7.651,73.25,12.932C73.25,12.932,8.823,54.568,8.823,54.568C8.823,54.568,2.467,25.509,2.467,25.509C-4.071,21.586,-16.362,10.556,-21.689,5.531C-36.945,5.531,-57.468,4.987,-66.73,-3.731C-75.992,-12.449,-75.066,-25.378,-65.985,-33.188C-56.108,-38.026,-9.147,-56.283,-1.147,-54.437Z" keyTimes="0; 0.166667; 0.666667; 1" keySplines="0 0 1 1; 0.415 0 0.562 1; 0.44 0 0.578 1" fill="freeze" /></path></g></g><g id="i26"><g transform="translate(483.252,191.658)"><animateTransform repeatCount="indefinite" type="translate" attributeName="transform" dur="0.2s" begin="0s" calcMode="spline" values="483.252 191.658; 483.252 191.658; 484.252 192.658; 483.252 191.658" keyTimes="0; 0.166665; 0.666665; 1" keySplines="0 0 1 1; 0.434 0 0.553 1; 0.44 0 0.549 1" fill="freeze" /><g transform="scale(1,1) translate(-73.5,-54.5)"><g clip-path="url(#i65)"><g transform="matrix(1,0,0,1,73.25,54.478)"><g><rect height="108.955" width="146.5" y="-54.477" x="-73.25" /></g></g><g mask="url(#i79)" transform="matrix(1,0,0,1,47.117,54.725)"><g><path fill="#3e2407" d="M5.006,5.676C-0.782,0.02,-4.176,-7.755,-3.897,-10.095C-4.224,-7.35,-7.618,3.256,-0.62,10.095C-0.62,10.095,5.006,5.676,5.006,5.676Z" /></g></g><g display="none" transform="matrix(1,0,0,1,73.25,54.478)"><g fill="#ff0000"><path fill="url(#i77)" d="M-0.784,-54.346C1.105,-53.91,47.642,-7.741,73.25,12.842C73.25,12.842,8.823,54.478,8.823,54.478C8.823,54.478,2.467,25.419,2.467,25.419C-4.071,21.496,-16.362,10.466,-21.689,5.441C-36.945,5.441,-57.468,4.897,-66.73,-3.821C-75.992,-12.539,-75.066,-25.468,-65.985,-33.278C-56.108,-38.116,-8.784,-56.192,-0.784,-54.346Z" /></g></g></g></g></g></g><g id="i85"><g transform="translate(424.396,161.814)"><animateTransform repeatCount="indefinite" type="translate" attributeName="transform" dur="0.2s" begin="0s" calcMode="spline" values="424.396 161.814; 424.396 161.814; 424.396 166.314; 424.396 161.814" keyTimes="0; 0.166665; 0.666665; 1" keySplines="0 0 1 1; 0.54 0 0.42 1; 0.562 0 0.488 1" fill="freeze" /><g transform="rotate(0)"><animateTransform repeatCount="indefinite" type="rotate" attributeName="transform" dur="0.2s" begin="0s" calcMode="spline" values="0; 0; -3; 0" keyTimes="0; 0.166665; 0.666665; 1" keySplines="0 0 1 1; 0.333 0 0.667 1; 0.333 0 0.667 1" fill="freeze" /><g transform="scale(1,1) translate(0,0)"><g id="i85"><path fill="url(#i82)" d="M2.843,8.95C4.677,6.917,9.762,-6.608,12.607,-11.814C0.607,-7.814,-4.916,-7.086,-10.579,-0.529C-17.807,7.84,-3.906,16.428,2.843,8.95Z" /></g></g></g></g></g></g><linearGradient id="i86" gradientUnits="userSpaceOnUse" spreadMethod="pad" x2="24.25" y2="42.432" x1="-41.25" y1="-44.068"><stop offset="0%" stop-color="#e49246" /><stop offset="5.7%" stop-color="#d27d38" /><stop offset="11.5%" stop-color="#c06929" /><stop offset="55.7%" stop-color="#a8631f" /><stop offset="100%" stop-color="#8f5e14" /></linearGradient><linearGradient id="i87" gradientUnits="userSpaceOnUse" spreadMethod="pad" x2="0" y2="11.814" x1="0" y1="-11.814"><stop offset="0%" stop-color="#fffbf0" /><stop offset="50%" stop-color="#d9d4c6" /><stop offset="100%" stop-color="#b4ad9b" /></linearGradient></defs><g transform="matrix(-1,0,0,1,53.751,166.253)" id="i88"><g id="i88"><path fill="url(#i0)" d="M-0.251,-46.253C-7.42,-53.024,-32.751,-44.253,-50.751,-43.753C-50.751,-43.753,-53.751,43.248,-53.751,43.248C-22.418,44.748,54.149,51.348,53.749,47.748C53.249,43.248,17.749,-29.253,-0.251,-46.253Z" /></g></g><g transform="matrix(1,0,0,1,520.252,166.253)" id="i89"><g id="i89"><path fill="url(#i1)" d="M-0.251,-46.253C-7.42,-53.024,-32.751,-44.253,-50.751,-43.753C-50.751,-43.753,-53.751,43.248,-53.751,43.248C-22.418,44.748,54.149,51.348,53.749,47.748C53.249,43.248,17.749,-29.253,-0.251,-46.253Z" /></g></g><g transform="matrix(1,0,0,1,96,4.188)" id="i90"><g clip-path="url(#i2)"><g transform="matrix(1,0,0,1,191,114.312)"><g><rect height="228.625" width="382" y="-114.313" x="-191" /></g></g><g transform="matrix(1,0,0,1,211.25,31.062)"><g><path fill="#08051b" d="M-21.75,-6.937C-21.75,-19.11,-14.729,-24.062,-8.75,-24.062C-2.771,-24.062,4.25,-19.11,4.25,-6.937C4.25,4.679,7.422,14.207,13.314,20.879C19.245,27.596,27.622,31.062,37.25,31.062C37.25,31.062,37.25,24.062,37.25,24.062C29.378,24.062,23.005,21.279,18.561,16.246C14.078,11.168,11.25,3.447,11.25,-6.937C11.25,-22.264,1.771,-31.062,-8.75,-31.062C-19.271,-31.062,-28.75,-22.264,-28.75,-6.937C-28.75,-6.937,-28.75,-4.438,-28.75,-4.438C-28.75,-4.438,-31.25,-4.438,-31.25,-4.438C-31.25,-4.438,-31.25,1.562,-31.25,1.562C-31.25,1.562,-28.75,1.562,-28.75,1.562C-28.75,1.562,-28.75,2.562,-28.75,2.562C-28.75,2.562,-33.25,2.562,-33.25,2.562C-33.25,2.562,-33.25,8.562,-33.25,8.562C-33.25,8.562,-28.75,8.562,-28.75,8.562C-28.75,8.562,-28.75,9.562,-28.75,9.562C-28.75,9.562,-35.25,9.562,-35.25,9.562C-35.25,9.562,-35.25,15.562,-35.25,15.562C-35.25,15.562,-28.75,15.562,-28.75,15.562C-28.75,15.562,-28.75,16.562,-28.75,16.562C-28.75,16.562,-37.25,16.562,-37.25,16.562C-37.25,16.562,-37.25,22.562,-37.25,22.562C-37.25,22.562,-28.75,22.562,-28.75,22.562C-28.75,22.562,-28.75,26.062,-28.75,26.062C-28.75,26.062,-28.75,26.063,-25.25,26.063C-21.75,26.063,-21.75,26.062,-21.75,26.062C-21.75,26.062,-21.75,22.562,-21.75,22.562C-21.75,22.562,-13.25,22.562,-13.25,22.562C-13.25,22.562,-13.25,16.562,-13.25,16.562C-13.25,16.562,-21.75,16.562,-21.75,16.562C-21.75,16.562,-21.75,15.562,-21.75,15.562C-21.75,15.562,-15.25,15.562,-15.25,15.562C-15.25,15.562,-15.25,9.562,-15.25,9.562C-15.25,9.562,-21.75,9.562,-21.75,9.562C-21.75,9.562,-21.75,8.562,-21.75,8.562C-21.75,8.562,-17.25,8.562,-17.25,8.562C-17.25,8.562,-17.25,2.562,-17.25,2.562C-17.25,2.562,-21.75,2.562,-21.75,2.562C-21.75,2.562,-21.75,1.562,-21.75,1.562C-21.75,1.562,-19.25,1.562,-19.25,1.562C-19.25,1.562,-19.25,-4.438,-19.25,-4.438C-19.25,-4.438,-21.75,-4.438,-21.75,-4.438C-21.75,-4.438,-21.75,-6.937,-21.75,-6.937Z" /></g></g><g transform="matrix(1,0,0,1,191,141.625)"><g><rect ry="26" rx="26" height="174" width="382" y="-87" x="-191" fill="url(#i3)" /></g></g><g transform="matrix(1,0,0,1,191,140.625)"><g><rect ry="18" rx="18" height="160" width="368" y="-80" x="-184" fill="url(#i4)" /></g></g></g></g><g transform="matrix(1,0,0,1,281.5,187.5)" id="i91"><g id="i91"><rect ry="54" rx="54" height="41" width="109" y="-20.5" x="-54.5" fill="#000000" /></g></g><g transform="matrix(1,0,0,1,399.5,124.5)" id="i26"><g id="i26"><rect ry="54" rx="54" height="41" width="91" y="-20.5" x="-45.5" fill="#000000" /></g></g><g id="i92"><g transform="translate(165,164)"><animateTransform repeatCount="indefinite" type="translate" attributeName="transform" dur="0.2s" begin="0s" calcMode="spline" values="165 163.5; 165 164; 165 163.5; 165 163.5; 165 164" keyTimes="0; 0.166666; 0.333333; 0.999999; 1" keySplines="0.45 0 0.484 1; 0.513 0 0.566 1; 0 0 1 1; 0.167 0 0.484 1" fill="freeze" /><g transform="scale(1,1.02)"><animateTransform repeatCount="indefinite" type="scale" attributeName="transform" dur="0.2s" begin="0s" calcMode="spline" values="1 1; 1 1.02; 1 1; 1 1; 1 1.02" keyTimes="0; 0.166666; 0.333333; 0.999999; 1" keySplines="0.333 0 0.667 1; 0.333 0 0.667 1; 0.167 0 0.667 1; 0.167 0 0.667 1" fill="freeze" /><g transform="translate(-40,-40)"><g clip-path="url(#i10)"><g transform="matrix(1,0,0,1,40,40)"><g><rect height="80" width="80" y="-40" x="-40" /></g></g><g transform="matrix(1,0,0,1,40,43.051)"><g><path fill="#000000" d="M14,-40C16.209,-40,18,-38.209,18,-36C18,-36,18,-22,18,-22C18,-19.791,19.791,-18,22,-18C22,-18,36,-18,36,-18C38.209,-18,40,-16.209,40,-14C40,-14,40,14,40,14C40,16.209,38.209,18,36,18C36,18,22,18,22,18C19.791,18,18,19.791,18,22C18,22,18,36,18,36C18,38.209,16.209,40,14,40C14,40,-14,40,-14,40C-16.209,40,-18,38.209,-18,36C-18,36,-18,22,-18,22C-18,19.791,-19.791,18,-22,18C-22,18,-36,18,-36,18C-38.209,18,-40,16.209,-40,14C-40,14,-40,-14,-40,-14C-40,-16.209,-38.209,-18,-36,-18C-36,-18,-22,-18,-22,-18C-19.791,-18,-18,-19.791,-18,-22C-18,-22,-18,-36,-18,-36C-18,-38.209,-16.209,-40,-14,-40C-14,-40,14,-40,14,-40Z" /></g></g><g transform="matrix(1,0,0,1,40,40.051)"><g><path fill="url(#i11)" d="M14,-40C16.209,-40,18,-38.209,18,-36C18,-36,18,-22,18,-22C18,-19.791,19.791,-18,22,-18C22,-18,36,-18,36,-18C38.209,-18,40,-16.209,40,-14C40,-14,40,14,40,14C40,16.209,38.209,18,36,18C36,18,22,18,22,18C19.791,18,18,19.791,18,22C18,22,18,36,18,36C18,38.209,16.209,40,14,40C14,40,-14,40,-14,40C-16.209,40,-18,38.209,-18,36C-18,36,-18,22,-18,22C-18,19.791,-19.791,18,-22,18C-22,18,-36,18,-36,18C-38.209,18,-40,16.209,-40,14C-40,14,-40,-14,-40,-14C-40,-16.209,-38.209,-18,-36,-18C-36,-18,-22,-18,-22,-18C-19.791,-18,-18,-19.791,-18,-22C-18,-22,-18,-36,-18,-36C-18,-38.209,-16.209,-40,-14,-40C-14,-40,14,-40,14,-40Z" /></g></g><g transform="matrix(1,0,0,1,40,42.068)"><g><path fill="#000000" d="M8,-35C10.761,-35,13,-32.761,13,-30C13,-30,13,-18,13,-18C13,-15.239,15.239,-13,18,-13C18,-13,30,-13,30,-13C32.761,-13,35,-10.761,35,-8C35,-8,35,8,35,8C35,10.761,32.761,13,30,13C30,13,18,13,18,13C15.239,13,13,15.239,13,18C13,18,13,30,13,30C13,32.761,10.761,35,8,35C8,35,-8,35,-8,35C-10.761,35,-13,32.761,-13,30C-13,30,-13,18,-13,18C-13,15.239,-15.239,13,-18,13C-18,13,-30,13,-30,13C-32.761,13,-35,10.761,-35,8C-35,8,-35,-8,-35,-8C-35,-10.761,-32.761,-13,-30,-13C-30,-13,-18,-13,-18,-13C-15.239,-13,-13,-15.239,-13,-18C-13,-18,-13,-30,-13,-30C-13,-32.761,-10.761,-35,-8,-35C-8,-35,8,-35,8,-35Z" /></g></g><g transform="matrix(1,0,0,1,40,40)"><g><path fill="url(#i12)" d="M8,-34.971C10.761,-34.971,13,-32.732,13,-29.971C13,-29.971,13,-17.996,13,-17.996C13,-15.235,15.239,-12.996,18,-12.996C18,-12.996,30,-12.996,30,-12.996C32.761,-12.996,35,-10.757,35,-7.996C35,-7.996,35,8.004,35,8.004C35,10.765,32.761,13.004,30,13.004C30,13.004,18,13.004,18,13.004C15.239,13.004,13,15.243,13,18.004C13,18.004,13,30.042,13,30.042C13,32.803,10.761,35.038,8,35.038C8,35.038,-8,35.038,-8,35.038C-10.761,35.038,-13,32.799,-13,30.038C-13,30.038,-13,18.004,-13,18.004C-13,15.243,-15.239,13.004,-18,13.004C-18,13.004,-30,13.004,-30,13.004C-32.761,13.004,-35,10.765,-35,8.004C-35,8.004,-35,-7.996,-35,-7.996C-35,-10.757,-32.761,-12.996,-30,-12.996C-30,-12.996,-18,-12.996,-18,-12.996C-15.239,-12.996,-13,-15.235,-13,-17.996C-13,-17.996,-13,-29.971,-13,-29.971C-13,-32.732,-10.761,-34.971,-8,-34.971C-8,-34.971,8,-34.971,8,-34.971Z" /></g></g><g transform="matrix(1,0,0,1,40,40.027)"><g><ellipse ry="9" rx="9" cy="0" cx="0" fill="#5a547a" /></g></g><g transform="matrix(1,0,0,1,62.293,40.036)"><g><path fill="#5a547a" d="M8,0.707C8,0.707,2.561,6.146,2.561,6.146C2.246,6.461,1.707,6.238,1.707,5.793C1.707,5.793,1.707,5,1.707,5C1.707,4.448,1.259,4,0.707,4C0.707,4,-7.293,4,-7.293,4C-7.845,4,-8.293,3.552,-8.293,3C-8.293,3,-8.293,-3,-8.293,-3C-8.293,-3.552,-7.845,-4,-7.293,-4C-7.293,-4,0.707,-4,0.707,-4C1.259,-4,1.707,-4.448,1.707,-5C1.707,-5,1.707,-5.793,1.707,-5.793C1.707,-6.238,2.246,-6.461,2.561,-6.146C2.561,-6.146,8,-0.707,8,-0.707C8.391,-0.316,8.391,0.316,8,0.707Z" /></g></g><g transform="matrix(1,0,0,1,17.707,40.036)"><g><path fill="#5a547a" d="M-8,0.707C-8,0.707,-2.561,6.146,-2.561,6.146C-2.246,6.461,-1.707,6.238,-1.707,5.793C-1.707,5.793,-1.707,5,-1.707,5C-1.707,4.448,-1.259,4,-0.707,4C-0.707,4,7.293,4,7.293,4C7.845,4,8.293,3.552,8.293,3C8.293,3,8.293,-3,8.293,-3C8.293,-3.552,7.845,-4,7.293,-4C7.293,-4,-0.707,-4,-0.707,-4C-1.259,-4,-1.707,-4.448,-1.707,-5C-1.707,-5,-1.707,-5.793,-1.707,-5.793C-1.707,-6.238,-2.246,-6.461,-2.561,-6.146C-2.561,-6.146,-8,-0.707,-8,-0.707C-8.391,-0.316,-8.391,0.316,-8,0.707Z" /></g></g><g transform="matrix(1,0,0,1,40,17.743)"><g><path fill="#5a547a" d="M-0.707,-8C-0.707,-8,-6.146,-2.561,-6.146,-2.561C-6.461,-2.246,-6.238,-1.707,-5.793,-1.707C-5.793,-1.707,-5,-1.707,-5,-1.707C-4.448,-1.707,-4,-1.259,-4,-0.707C-4,-0.707,-4,7.293,-4,7.293C-4,7.845,-3.552,8.293,-3,8.293C-3,8.293,3,8.293,3,8.293C3.552,8.293,4,7.845,4,7.293C4,7.293,4,-0.707,4,-0.707C4,-1.259,4.448,-1.707,5,-1.707C5,-1.707,5.793,-1.707,5.793,-1.707C6.238,-1.707,6.461,-2.246,6.146,-2.561C6.146,-2.561,0.707,-8,0.707,-8C0.316,-8.391,-0.316,-8.391,-0.707,-8Z" /></g></g><g><g transform="translate(40,62.293)"><animateTransform repeatCount="indefinite" type="translate" attributeName="transform" dur="0.2s" begin="0s" calcMode="spline" values="40 62.293; 40 62.293; 40 62.793; 40 62.293" keyTimes="0; 0.166665; 1; 1" keySplines="0 0 1 1; 0 0 1 1; 0 0 1 1" fill="freeze" /><g transform="scale(1,1) translate(0,0)"><g><path fill="#5a547a" d="M4,0.707C4,1.259,4.448,1.707,5,1.707C5,1.707,5.793,1.707,5.793,1.707C6.238,1.707,6.461,2.246,6.146,2.561C6.146,2.561,0.707,8,0.707,8C0.316,8.391,-0.316,8.391,-0.707,8C-0.707,8,-6.146,2.561,-6.146,2.561C-6.461,2.246,-6.238,1.707,-5.793,1.707C-5.793,1.707,-5,1.707,-5,1.707C-4.448,1.707,-4,1.259,-4,0.707C-4,0.707,-4,-7.293,-4,-7.293C-4,-7.845,-3.552,-8.293,-3,-8.293C-3,-8.293,3,-8.293,3,-8.293C3.552,-8.293,4,-7.845,4,-7.293C4,-7.293,4,0.707,4,0.707Z" /></g></g></g></g></g></g></g></g></g><g transform="matrix(1,0,0,1,354,162)" id="i93"><g clip-path="url(#i21)"><g transform="matrix(1,0,0,1,21,23)"><g><rect height="46" width="42" y="-23" x="-21" /></g></g><g transform="matrix(1,0,0,1,21,25)"><g><ellipse ry="21" rx="21" cy="0" cx="0" fill="#000000" /></g></g><g transform="matrix(1,0,0,1,21,21)"><g><ellipse ry="21" rx="21" cy="0" cx="0" fill="url(#i22)" /></g></g><g transform="matrix(1,0,0,1,5,5)"><g transform="matrix(1,0,0,1,16,18)" opacity="0.4"><g><ellipse ry="16" rx="16" cy="0" cx="0" fill="#000000" /></g></g></g><g transform="matrix(1,0,0,1,5,5)"><g transform="matrix(1,0,0,1,16,16)"><g><ellipse ry="16" rx="16" cy="0" cx="0" fill="url(#i23)" /></g></g></g><g transform="matrix(1,0,0,1,5,5)" /><g transform="matrix(1,0,0,1,21.612,21.182)"><g><path fill="#595279" fill-rule="evenodd" d="M-0.157,-0.924C-0.157,-0.924,-2.373,-0.924,-2.373,-0.924C-2.373,-0.924,-2.373,-4.335,-2.373,-4.335C-2.373,-4.335,-0.109,-4.335,-0.109,-4.335C0.551,-4.335,1.048,-4.18,1.382,-3.87C1.72,-3.56,1.89,-3.165,1.89,-2.686C1.89,-2.324,1.799,-2.011,1.618,-1.745C1.441,-1.483,1.197,-1.28,0.887,-1.135C0.577,-0.994,0.229,-0.924,-0.157,-0.924ZM0.036,4.31C0.036,4.31,-2.373,4.31,-2.373,4.31C-2.373,4.31,-2.373,0.688,-2.373,0.688C-2.373,0.688,0.097,0.688,0.097,0.688C0.56,0.688,0.958,0.775,1.292,0.948C1.626,1.117,1.884,1.35,2.065,1.648C2.246,1.942,2.336,2.272,2.336,2.638C2.336,3.129,2.155,3.532,1.793,3.846C1.435,4.156,0.849,4.31,0.036,4.31ZM-4.612,-6.182C-4.612,-6.182,-4.612,6.182,-4.612,6.182C-4.612,6.182,0.392,6.182,0.392,6.182C1.338,6.182,2.123,6.035,2.747,5.741C3.371,5.447,3.837,5.047,4.147,4.54C4.457,4.029,4.612,3.453,4.612,2.813C4.612,2.185,4.484,1.65,4.226,1.207C3.968,0.764,3.636,0.422,3.23,0.181C2.828,-0.064,2.407,-0.199,1.968,-0.223C1.968,-0.223,1.968,-0.344,1.968,-0.344C2.37,-0.441,2.735,-0.6,3.061,-0.821C3.387,-1.042,3.646,-1.33,3.839,-1.684C4.032,-2.042,4.129,-2.473,4.129,-2.976C4.129,-3.588,3.981,-4.135,3.683,-4.618C3.389,-5.101,2.944,-5.481,2.348,-5.759C1.756,-6.041,1.014,-6.182,0.121,-6.182C0.121,-6.182,-4.612,-6.182,-4.612,-6.182Z" /></g></g></g></g><g id="i94"><g transform="translate(424,187.5)"><animateTransform repeatCount="indefinite" type="translate" attributeName="transform" dur="0.2s" begin="0s" calcMode="spline" values="424 187.5; 424 187.5; 424 187; 424 187.5; 424 187.5" keyTimes="0; 0.5; 0.666667; 0.833335; 1" keySplines="0 0 1 1; 0.45 0 0.484 1; 0.528 0 0.532 1; 0 0 1 1" fill="freeze" /><g transform="scale(1,1)"><animateTransform repeatCount="indefinite" type="scale" attributeName="transform" dur="0.2s" begin="0s" calcMode="spline" values="1 1; 1 1; 1 1.02; 1 1; 1 1" keyTimes="0; 0.5; 0.666667; 0.833335; 1" keySplines="0 0 1 1; 0.333 0 0.667 1; 0.333 0 0.667 1; 0 0 1 1" fill="freeze" /><g transform="translate(-21,-23)"><g clip-path="url(#i21)"><g transform="matrix(1,0,0,1,21,23)"><g><rect height="46" width="42" y="-23" x="-21" /></g></g><g transform="matrix(1,0,0,1,21,25)"><g><ellipse ry="21" rx="21" cy="0" cx="0" fill="#000000" /></g></g><g transform="matrix(1,0,0,1,21,21)"><g><ellipse ry="21" rx="21" cy="0" cx="0" fill="url(#i31)" /></g></g><g transform="matrix(1,0,0,1,5,5)"><g transform="matrix(1,0,0,1,16,18)" opacity="0.4"><g><ellipse ry="16" rx="16" cy="0" cx="0" fill="#000000" /></g></g></g><g transform="matrix(1,0,0,1,5,5)"><g transform="matrix(1,0,0,1,16,16)"><g><ellipse ry="16" rx="16" cy="0" cx="0" fill="url(#i32)" /></g></g></g><g transform="matrix(1,0,0,1,5,5)" /><g transform="matrix(1,0,0,1,20.738,20.818)"><g><path fill="#595279" fill-rule="evenodd" d="M3.251,1.334C3.251,1.334,-3.269,1.334,-3.269,1.334C-3.269,1.334,-3.269,3.133,-3.269,3.133C-3.269,3.133,3.251,3.133,3.251,3.133C3.251,3.133,3.251,1.334,3.251,1.334ZM-5.738,6.182C-5.738,6.182,-3.347,6.182,-3.347,6.182C-3.347,6.182,-0.051,-3.646,-0.051,-3.646C-0.051,-3.646,0.045,-3.646,0.045,-3.646C0.045,-3.646,3.347,6.182,3.347,6.182C3.347,6.182,5.738,6.182,5.738,6.182C5.738,6.182,1.379,-6.182,1.379,-6.182C1.379,-6.182,-1.385,-6.182,-1.385,-6.182C-1.385,-6.182,-5.738,6.182,-5.738,6.182Z" /></g></g></g></g></g></g></g><g transform="matrix(1,0,0,1,227,149.051)" id="i95"><g clip-path="url(#i38)"><g transform="matrix(1,0,0,1,54.5,27.949)"><g><rect height="55.898" width="109" y="-27.949" x="-54.5" /></g></g><g transform="matrix(1,0,0,1,54.5,36.898)"><g><rect ry="140" rx="140" height="38" width="109" y="-19" x="-54.5" fill="url(#i39)" /></g></g><g transform="matrix(1,0,0,1,29,39.398)" opacity="0.4"><g><rect ry="30" rx="30" height="13" width="32" y="-6.5" x="-16" fill="#000000" /></g></g><g transform="matrix(1,0,0,1,80,39.398)" opacity="0.4"><g><rect ry="30" rx="30" height="13" width="32" y="-6.5" x="-16" fill="#000000" /></g></g><g transform="matrix(1,0,0,1,29,37.398)"><g><rect ry="30" rx="30" height="13" width="32" y="-6.5" x="-16" fill="url(#i40)" /></g></g><g transform="matrix(1,0,0,1,80,37.398)"><g><rect ry="30" rx="30" height="13" width="32" y="-6.5" x="-16" fill="url(#i41)" /></g></g><g transform="matrix(1,0,0,1,29.095,3)"><g><path fill="#595279" fill-rule="evenodd" d="M10.276,-2.92C10.276,-2.92,10.276,-2.295,10.276,-2.295C10.276,-2.295,12.106,-2.295,12.106,-2.295C12.106,-2.295,12.106,2.898,12.106,2.898C12.106,2.898,12.81,2.898,12.81,2.898C12.81,2.898,12.81,-2.295,12.81,-2.295C12.81,-2.295,14.64,-2.295,14.64,-2.295C14.64,-2.295,14.64,-2.92,14.64,-2.92C14.64,-2.92,10.276,-2.92,10.276,-2.92ZM8.751,-1.102C8.751,-1.102,9.456,-1.102,9.456,-1.102C9.403,-1.401,9.306,-1.668,9.166,-1.901C9.026,-2.136,8.851,-2.334,8.643,-2.497C8.435,-2.662,8.201,-2.787,7.942,-2.872C7.684,-2.957,7.409,-3,7.115,-3C6.619,-3,6.177,-2.878,5.791,-2.636C5.405,-2.394,5.101,-2.049,4.879,-1.602C4.657,-1.155,4.547,-0.625,4.547,-0.011C4.547,0.603,4.657,1.133,4.879,1.58C5.101,2.027,5.405,2.372,5.791,2.614C6.177,2.856,6.619,2.977,7.115,2.977C7.409,2.977,7.684,2.934,7.942,2.849C8.201,2.764,8.435,2.64,8.643,2.477C8.851,2.312,9.026,2.113,9.166,1.878C9.306,1.643,9.403,1.377,9.456,1.08C9.456,1.08,8.751,1.08,8.751,1.08C8.709,1.281,8.637,1.459,8.533,1.614C8.431,1.767,8.306,1.897,8.158,2.003C8.012,2.107,7.85,2.186,7.672,2.239C7.494,2.292,7.308,2.318,7.115,2.318C6.763,2.318,6.444,2.229,6.158,2.051C5.874,1.873,5.648,1.611,5.479,1.264C5.312,0.917,5.229,0.493,5.229,-0.011C5.229,-0.515,5.312,-0.94,5.479,-1.287C5.648,-1.634,5.874,-1.896,6.158,-2.074C6.444,-2.252,6.763,-2.341,7.115,-2.341C7.308,-2.341,7.494,-2.314,7.672,-2.261C7.85,-2.208,8.012,-2.129,8.158,-2.023C8.306,-1.919,8.431,-1.789,8.533,-1.636C8.637,-1.483,8.709,-1.305,8.751,-1.102ZM-0.007,-2.92C-0.007,-2.92,-0.007,2.898,-0.007,2.898C-0.007,2.898,3.55,2.898,3.55,2.898C3.55,2.898,3.55,2.273,3.55,2.273C3.55,2.273,0.697,2.273,0.697,2.273C0.697,2.273,0.697,0.295,0.697,0.295C0.697,0.295,3.322,0.295,3.322,0.295C3.322,0.295,3.322,-0.33,3.322,-0.33C3.322,-0.33,0.697,-0.33,0.697,-0.33C0.697,-0.33,0.697,-2.295,0.697,-2.295C0.697,-2.295,3.504,-2.295,3.504,-2.295C3.504,-2.295,3.504,-2.92,3.504,-2.92C3.504,-2.92,-0.007,-2.92,-0.007,-2.92ZM-4.507,-2.92C-4.507,-2.92,-4.507,2.898,-4.507,2.898C-4.507,2.898,-1.098,2.898,-1.098,2.898C-1.098,2.898,-1.098,2.273,-1.098,2.273C-1.098,2.273,-3.803,2.273,-3.803,2.273C-3.803,2.273,-3.803,-2.92,-3.803,-2.92C-3.803,-2.92,-4.507,-2.92,-4.507,-2.92ZM-9.288,-2.92C-9.288,-2.92,-9.288,2.898,-9.288,2.898C-9.288,2.898,-5.732,2.898,-5.732,2.898C-5.732,2.898,-5.732,2.273,-5.732,2.273C-5.732,2.273,-8.584,2.273,-8.584,2.273C-8.584,2.273,-8.584,0.295,-8.584,0.295C-8.584,0.295,-5.959,0.295,-5.959,0.295C-5.959,0.295,-5.959,-0.33,-5.959,-0.33C-5.959,-0.33,-8.584,-0.33,-8.584,-0.33C-8.584,-0.33,-8.584,-2.295,-8.584,-2.295C-8.584,-2.295,-5.777,-2.295,-5.777,-2.295C-5.777,-2.295,-5.777,-2.92,-5.777,-2.92C-5.777,-2.92,-9.288,-2.92,-9.288,-2.92ZM-11.623,-2.136C-11.381,-1.977,-11.242,-1.754,-11.208,-1.466C-11.208,-1.466,-10.526,-1.466,-10.526,-1.466C-10.535,-1.76,-10.627,-2.022,-10.799,-2.253C-10.969,-2.484,-11.2,-2.665,-11.492,-2.798C-11.784,-2.932,-12.117,-3,-12.492,-3C-12.863,-3,-13.2,-2.931,-13.501,-2.795C-13.8,-2.661,-14.039,-2.471,-14.217,-2.227C-14.393,-1.985,-14.481,-1.701,-14.481,-1.375C-14.481,-0.983,-14.348,-0.665,-14.083,-0.423C-13.818,-0.181,-13.459,0.005,-13.004,0.136C-13.004,0.136,-12.288,0.341,-12.288,0.341C-12.083,0.398,-11.893,0.464,-11.717,0.54C-11.541,0.616,-11.398,0.714,-11.29,0.835C-11.182,0.956,-11.129,1.114,-11.129,1.307C-11.129,1.519,-11.191,1.705,-11.316,1.864C-11.441,2.021,-11.611,2.144,-11.825,2.233C-12.039,2.32,-12.28,2.364,-12.549,2.364C-12.78,2.364,-12.996,2.329,-13.197,2.261C-13.396,2.191,-13.56,2.085,-13.691,1.943C-13.82,1.799,-13.894,1.618,-13.913,1.398C-13.913,1.398,-14.64,1.398,-14.64,1.398C-14.617,1.716,-14.519,1.995,-14.347,2.236C-14.173,2.477,-13.934,2.664,-13.631,2.798C-13.326,2.932,-12.966,3,-12.549,3C-12.102,3,-11.722,2.926,-11.41,2.776C-11.096,2.626,-10.857,2.424,-10.694,2.17C-10.529,1.916,-10.447,1.632,-10.447,1.318C-10.447,1.045,-10.502,0.816,-10.614,0.628C-10.726,0.44,-10.868,0.287,-11.04,0.168C-11.21,0.047,-11.389,-0.049,-11.577,-0.119C-11.763,-0.189,-11.931,-0.244,-12.083,-0.284C-12.083,-0.284,-12.674,-0.443,-12.674,-0.443C-12.782,-0.471,-12.9,-0.509,-13.029,-0.554C-13.158,-0.601,-13.281,-0.661,-13.398,-0.733C-13.515,-0.807,-13.612,-0.899,-13.688,-1.009C-13.762,-1.121,-13.799,-1.254,-13.799,-1.409C-13.799,-1.595,-13.746,-1.76,-13.64,-1.906C-13.532,-2.052,-13.382,-2.167,-13.191,-2.25C-12.998,-2.333,-12.773,-2.375,-12.515,-2.375C-12.163,-2.375,-11.865,-2.295,-11.623,-2.136Z" /></g></g><g transform="matrix(1,0,0,1,79.641,3)"><g><path fill="#595279" fill-rule="evenodd" d="M7.823,-2.92C7.823,-2.92,7.823,-2.295,7.823,-2.295C7.823,-2.295,9.653,-2.295,9.653,-2.295C9.653,-2.295,9.653,2.898,9.653,2.898C9.653,2.898,10.357,2.898,10.357,2.898C10.357,2.898,10.357,-2.295,10.357,-2.295C10.357,-2.295,12.187,-2.295,12.187,-2.295C12.187,-2.295,12.187,-2.92,12.187,-2.92C12.187,-2.92,7.823,-2.92,7.823,-2.92ZM7.195,2.898C7.195,2.898,5.763,0.284,5.763,0.284C5.763,0.284,4.967,0.284,4.967,0.284C4.967,0.284,6.376,2.898,6.376,2.898C6.376,2.898,7.195,2.898,7.195,2.898ZM3.024,-2.92C3.024,-2.92,3.024,2.898,3.024,2.898C3.024,2.898,3.729,2.898,3.729,2.898C3.729,2.898,3.729,-2.295,3.729,-2.295C3.729,-2.295,4.967,-2.295,4.967,-2.295C5.281,-2.295,5.535,-2.248,5.726,-2.151C5.917,-2.056,6.056,-1.921,6.143,-1.747C6.23,-1.573,6.274,-1.369,6.274,-1.136C6.274,-0.903,6.23,-0.703,6.143,-0.534C6.058,-0.367,5.92,-0.239,5.729,-0.148C5.54,-0.057,5.29,-0.011,4.979,-0.011C4.979,-0.011,3.411,-0.011,3.411,-0.011C3.411,-0.011,3.411,0.625,3.411,0.625C3.411,0.625,5.001,0.625,5.001,0.625C5.452,0.625,5.822,0.551,6.112,0.401C6.402,0.249,6.617,0.041,6.757,-0.224C6.897,-0.489,6.967,-0.793,6.967,-1.136C6.967,-1.479,6.897,-1.785,6.757,-2.054C6.617,-2.323,6.401,-2.535,6.109,-2.688C5.817,-2.843,5.445,-2.92,4.99,-2.92C4.99,-2.92,3.024,-2.92,3.024,-2.92ZM1.107,0.625C1.107,0.625,-1.871,0.625,-1.871,0.625C-1.871,0.625,-1.871,1.25,-1.871,1.25C-1.871,1.25,1.107,1.25,1.107,1.25C1.107,1.25,1.107,0.625,1.107,0.625ZM-2.882,2.898C-2.882,2.898,-2.143,2.898,-2.143,2.898C-2.143,2.898,-0.405,-2,-0.405,-2C-0.405,-2,-0.359,-2,-0.359,-2C-0.359,-2,1.379,2.898,1.379,2.898C1.379,2.898,2.118,2.898,2.118,2.898C2.118,2.898,-0.018,-2.92,-0.018,-2.92C-0.018,-2.92,-0.746,-2.92,-0.746,-2.92C-0.746,-2.92,-2.882,2.898,-2.882,2.898ZM-7.153,-2.92C-7.153,-2.92,-7.153,-2.295,-7.153,-2.295C-7.153,-2.295,-5.324,-2.295,-5.324,-2.295C-5.324,-2.295,-5.324,2.898,-5.324,2.898C-5.324,2.898,-4.619,2.898,-4.619,2.898C-4.619,2.898,-4.619,-2.295,-4.619,-2.295C-4.619,-2.295,-2.79,-2.295,-2.79,-2.295C-2.79,-2.295,-2.79,-2.92,-2.79,-2.92C-2.79,-2.92,-7.153,-2.92,-7.153,-2.92ZM-9.17,-2.136C-8.928,-1.977,-8.789,-1.754,-8.755,-1.466C-8.755,-1.466,-8.073,-1.466,-8.073,-1.466C-8.082,-1.76,-8.174,-2.022,-8.346,-2.253C-8.516,-2.484,-8.747,-2.665,-9.039,-2.798C-9.331,-2.932,-9.664,-3,-10.039,-3C-10.41,-3,-10.747,-2.931,-11.048,-2.795C-11.347,-2.661,-11.585,-2.471,-11.763,-2.227C-11.939,-1.985,-12.028,-1.701,-12.028,-1.375C-12.028,-0.983,-11.895,-0.665,-11.63,-0.423C-11.365,-0.181,-11.005,0.005,-10.55,0.136C-10.55,0.136,-9.835,0.341,-9.835,0.341C-9.63,0.398,-9.439,0.464,-9.263,0.54C-9.087,0.616,-8.945,0.714,-8.837,0.835C-8.729,0.956,-8.675,1.114,-8.675,1.307C-8.675,1.519,-8.738,1.705,-8.863,1.864C-8.988,2.021,-9.157,2.144,-9.371,2.233C-9.585,2.32,-9.827,2.364,-10.096,2.364C-10.327,2.364,-10.543,2.329,-10.744,2.261C-10.943,2.191,-11.107,2.085,-11.238,1.943C-11.367,1.799,-11.441,1.618,-11.46,1.398C-11.46,1.398,-12.187,1.398,-12.187,1.398C-12.164,1.716,-12.066,1.995,-11.894,2.236C-11.72,2.477,-11.481,2.664,-11.178,2.798C-10.873,2.932,-10.513,3,-10.096,3C-9.649,3,-9.269,2.926,-8.957,2.776C-8.643,2.626,-8.404,2.424,-8.241,2.17C-8.076,1.916,-7.994,1.632,-7.994,1.318C-7.994,1.045,-8.049,0.816,-8.161,0.628C-8.273,0.44,-8.415,0.287,-8.587,0.168C-8.757,0.047,-8.936,-0.049,-9.124,-0.119C-9.31,-0.189,-9.478,-0.244,-9.63,-0.284C-9.63,-0.284,-10.221,-0.443,-10.221,-0.443C-10.329,-0.471,-10.447,-0.509,-10.576,-0.554C-10.705,-0.601,-10.828,-0.661,-10.945,-0.733C-11.062,-0.807,-11.159,-0.899,-11.235,-1.009C-11.309,-1.121,-11.346,-1.254,-11.346,-1.409C-11.346,-1.595,-11.293,-1.76,-11.187,-1.906C-11.079,-2.052,-10.929,-2.167,-10.738,-2.25C-10.545,-2.333,-10.32,-2.375,-10.062,-2.375C-9.71,-2.375,-9.412,-2.295,-9.17,-2.136Z" /></g></g></g></g><g transform="matrix(1,0,0,1,354,82.051)" id="i96"><g clip-path="url(#i51)"><g transform="matrix(1,0,0,1,45.5,29.949)"><g><rect height="59.898" width="91" y="-29.949" x="-45.5" /></g></g><g transform="matrix(1,0,0,1,0,17.898)"><g clip-path="url(#i52)"><g transform="matrix(1,0,0,1,45.5,21)"><g><rect ry="140" rx="140" height="42" width="91" y="-21" x="-45.5" fill="url(#i53)" /></g></g><g transform="matrix(1,0,0,1,21,24)" opacity="0.4"><g><ellipse ry="16" rx="16" cy="0" cx="0" fill="#131020" /></g></g><g transform="matrix(1,0,0,1,70,24)" opacity="0.4"><g><ellipse ry="16" rx="16" cy="0" cx="0" fill="#131020" /></g></g><g transform="matrix(1,0,0,1,21,21)"><g><ellipse ry="16" rx="16" cy="0" cx="0" fill="url(#i54)" /></g></g><g transform="matrix(1,0,0,1,70,21)"><g><ellipse ry="16" rx="16" cy="0" cx="0" fill="url(#i55)" /></g></g></g></g><g transform="matrix(1,0,0,1,45.691,3)"><g><path fill="#595279" fill-rule="evenodd" d="M12.37,-1.287C12.539,-0.94,12.623,-0.515,12.623,-0.011C12.623,0.493,12.539,0.917,12.37,1.264C12.203,1.611,11.977,1.873,11.691,2.051C11.407,2.229,11.089,2.318,10.737,2.318C10.385,2.318,10.065,2.229,9.779,2.051C9.495,1.873,9.269,1.611,9.1,1.264C8.933,0.917,8.85,0.493,8.85,-0.011C8.85,-0.515,8.933,-0.94,9.1,-1.287C9.269,-1.634,9.495,-1.896,9.779,-2.074C10.065,-2.252,10.385,-2.341,10.737,-2.341C11.089,-2.341,11.407,-2.252,11.691,-2.074C11.977,-1.896,12.203,-1.634,12.37,-1.287ZM12.973,1.58C13.195,1.133,13.305,0.603,13.305,-0.011C13.305,-0.625,13.195,-1.155,12.973,-1.602C12.751,-2.049,12.447,-2.394,12.061,-2.636C11.675,-2.878,11.233,-3,10.737,-3C10.241,-3,9.799,-2.878,9.413,-2.636C9.027,-2.394,8.723,-2.049,8.501,-1.602C8.279,-1.155,8.169,-0.625,8.169,-0.011C8.169,0.603,8.279,1.133,8.501,1.58C8.723,2.027,9.027,2.372,9.413,2.614C9.799,2.856,10.241,2.977,10.737,2.977C11.233,2.977,11.675,2.856,12.061,2.614C12.447,2.372,12.751,2.027,12.973,1.58ZM5.204,-0.364C5.204,-0.364,3.897,-0.364,3.897,-0.364C3.897,-0.364,3.897,-2.295,3.897,-2.295C3.897,-2.295,5.227,-2.295,5.227,-2.295C5.613,-2.295,5.896,-2.206,6.074,-2.026C6.252,-1.848,6.341,-1.631,6.341,-1.375C6.341,-1.17,6.289,-0.993,6.187,-0.841C6.087,-0.689,5.95,-0.572,5.778,-0.489C5.608,-0.406,5.416,-0.364,5.204,-0.364ZM5.295,2.273C5.295,2.273,3.897,2.273,3.897,2.273C3.897,2.273,3.897,0.25,3.897,0.25C3.897,0.25,5.329,0.25,5.329,0.25C5.583,0.25,5.802,0.301,5.988,0.403C6.174,0.503,6.317,0.638,6.417,0.807C6.517,0.974,6.568,1.155,6.568,1.352C6.568,1.608,6.47,1.826,6.275,2.006C6.082,2.184,5.755,2.273,5.295,2.273ZM3.193,-2.92C3.193,-2.92,3.193,2.898,3.193,2.898C3.193,2.898,5.295,2.898,5.295,2.898C5.753,2.898,6.126,2.829,6.412,2.693C6.698,2.557,6.906,2.372,7.039,2.139C7.172,1.906,7.238,1.644,7.238,1.352C7.238,1.045,7.177,0.786,7.056,0.574C6.935,0.362,6.785,0.199,6.605,0.085C6.425,-0.029,6.246,-0.091,6.068,-0.102C6.068,-0.102,6.068,-0.159,6.068,-0.159C6.235,-0.204,6.389,-0.274,6.531,-0.369C6.675,-0.464,6.79,-0.593,6.877,-0.756C6.966,-0.919,7.011,-1.125,7.011,-1.375C7.011,-1.659,6.947,-1.918,6.818,-2.151C6.689,-2.386,6.493,-2.572,6.23,-2.71C5.967,-2.85,5.632,-2.92,5.227,-2.92C5.227,-2.92,3.193,-2.92,3.193,-2.92ZM2.246,2.898C2.246,2.898,0.814,0.284,0.814,0.284C0.814,0.284,0.019,0.284,0.019,0.284C0.019,0.284,1.428,2.898,1.428,2.898C1.428,2.898,2.246,2.898,2.246,2.898ZM-1.924,-2.92C-1.924,-2.92,-1.924,2.898,-1.924,2.898C-1.924,2.898,-1.22,2.898,-1.22,2.898C-1.22,2.898,-1.22,-2.295,-1.22,-2.295C-1.22,-2.295,0.019,-2.295,0.019,-2.295C0.333,-2.295,0.586,-2.248,0.777,-2.151C0.968,-2.056,1.108,-1.921,1.195,-1.747C1.282,-1.573,1.326,-1.369,1.326,-1.136C1.326,-0.903,1.282,-0.703,1.195,-0.534C1.11,-0.367,0.971,-0.239,0.78,-0.148C0.591,-0.057,0.341,-0.011,0.03,-0.011C0.03,-0.011,-1.538,-0.011,-1.538,-0.011C-1.538,-0.011,-1.538,0.625,-1.538,0.625C-1.538,0.625,0.053,0.625,0.053,0.625C0.504,0.625,0.874,0.551,1.164,0.401C1.454,0.249,1.669,0.041,1.809,-0.224C1.949,-0.489,2.019,-0.793,2.019,-1.136C2.019,-1.479,1.949,-1.785,1.809,-2.054C1.669,-2.323,1.453,-2.535,1.161,-2.688C0.869,-2.843,0.497,-2.92,0.042,-2.92C0.042,-2.92,-1.924,-2.92,-1.924,-2.92ZM-3.331,-2.92C-3.331,-2.92,-4.036,-2.92,-4.036,-2.92C-4.036,-2.92,-4.036,0.875,-4.036,0.875C-4.036,1.159,-4.098,1.412,-4.223,1.634C-4.346,1.854,-4.524,2.026,-4.757,2.153C-4.99,2.278,-5.269,2.341,-5.593,2.341C-5.917,2.341,-6.195,2.278,-6.428,2.153C-6.659,2.026,-6.837,1.854,-6.962,1.634C-7.087,1.412,-7.15,1.159,-7.15,0.875C-7.15,0.875,-7.15,-2.92,-7.15,-2.92C-7.15,-2.92,-7.854,-2.92,-7.854,-2.92C-7.854,-2.92,-7.854,0.932,-7.854,0.932C-7.854,1.33,-7.762,1.685,-7.576,1.997C-7.388,2.308,-7.125,2.553,-6.786,2.733C-6.447,2.911,-6.049,3,-5.593,3C-5.137,3,-4.739,2.911,-4.4,2.733C-4.061,2.553,-3.799,2.308,-3.613,1.997C-3.425,1.685,-3.331,1.33,-3.331,0.932C-3.331,0.932,-3.331,-2.92,-3.331,-2.92ZM-13.305,-2.92C-13.305,-2.92,-13.305,-2.295,-13.305,-2.295C-13.305,-2.295,-11.475,-2.295,-11.475,-2.295C-11.475,-2.295,-11.475,2.898,-11.475,2.898C-11.475,2.898,-10.771,2.898,-10.771,2.898C-10.771,2.898,-10.771,-2.295,-10.771,-2.295C-10.771,-2.295,-8.941,-2.295,-8.941,-2.295C-8.941,-2.295,-8.941,-2.92,-8.941,-2.92C-8.941,-2.92,-13.305,-2.92,-13.305,-2.92Z" /></g></g><g transform="matrix(1,0,0,1,66.25,8.648)"><g><path fill="#595279" d="M4.25,-6.25C4.25,-6.25,-4.25,-6.25,-4.25,-6.25C-4.25,-6.25,-4.25,-5.25,-4.25,-5.25C-4.25,-5.25,3.25,-5.25,3.25,-5.25C3.25,-5.25,3.25,6.25,3.25,6.25C3.25,6.25,4.25,6.25,4.25,6.25C4.25,6.25,4.25,-6.25,4.25,-6.25Z" /></g></g><g transform="matrix(-1,0,0,1,24.75,8.648)"><g><path fill="#595279" d="M4.25,-6.25C4.25,-6.25,-4.25,-6.25,-4.25,-6.25C-4.25,-6.25,-4.25,-5.25,-4.25,-5.25C-4.25,-5.25,3.25,-5.25,3.25,-5.25C3.25,-5.25,3.25,6.25,3.25,6.25C3.25,6.25,4.25,6.25,4.25,6.25C4.25,6.25,4.25,-6.25,4.25,-6.25Z" /></g></g></g></g><g transform="matrix(-1,0,0,1,89.752,191.568)" id="i97"><g id="i97"><path d="M-1.147,-54.437C0.742,-54.001,47.642,-7.651,73.25,12.932C73.25,12.932,8.823,54.568,8.823,54.568C8.823,54.568,2.467,25.509,2.467,25.509C-4.071,21.586,-16.362,10.556,-21.689,5.531C-36.945,5.531,-57.468,7.487,-66.73,-1.231C-75.992,-9.949,-75.066,-22.878,-65.985,-30.688C-56.108,-35.526,-9.147,-56.283,-1.147,-54.437Z" fill="url(#i64)"><animate repeatCount="indefinite" attributeName="d" dur="0.2s" begin="0s" calcMode="spline" values="M-1.147,-54.437C0.742,-54.001,47.642,-7.651,73.25,12.932C73.25,12.932,8.823,54.568,8.823,54.568C8.823,54.568,2.467,25.509,2.467,25.509C-4.071,21.586,-16.362,10.556,-21.689,5.531C-36.945,5.531,-57.468,7.487,-66.73,-1.231C-75.992,-9.949,-75.066,-22.878,-65.985,-30.688C-56.108,-35.526,-9.147,-56.283,-1.147,-54.437Z; M-1.147,-54.437C0.742,-54.001,47.642,-7.651,73.25,12.932C73.25,12.932,8.823,54.568,8.823,54.568C8.823,54.568,2.467,25.509,2.467,25.509C-4.071,21.586,-16.362,10.556,-21.689,5.531C-36.945,5.531,-57.468,7.487,-66.73,-1.231C-75.992,-9.949,-75.066,-22.878,-65.985,-30.688C-56.108,-35.526,-9.147,-56.283,-1.147,-54.437Z; M-1.147,-54.437C0.742,-54.001,47.642,-7.651,73.25,12.932C73.25,12.932,8.823,54.568,8.823,54.568C8.823,54.568,2.467,25.509,2.467,25.509C-4.071,21.586,-16.362,10.556,-21.689,5.531C-36.945,5.531,-57.468,4.987,-66.73,-3.731C-75.992,-12.449,-75.066,-25.378,-65.985,-33.188C-56.108,-38.026,-9.147,-56.283,-1.147,-54.437Z; M-1.147,-54.437C0.742,-54.001,47.642,-7.651,73.25,12.932C73.25,12.932,8.823,54.568,8.823,54.568C8.823,54.568,2.467,25.509,2.467,25.509C-4.071,21.586,-16.362,10.556,-21.689,5.531C-36.945,5.531,-57.468,7.487,-66.73,-1.231C-75.992,-9.949,-75.066,-22.878,-65.985,-30.688C-56.108,-35.526,-9.147,-56.283,-1.147,-54.437Z" keyTimes="0; 0.166667; 0.666667; 1" keySplines="0 0 1 1; 0.554 0 0.833 1; 0.565 0 0.507 1" fill="freeze" /></path></g></g><g id="i26"><g transform="translate(89.752,192.7)"><animateTransform repeatCount="indefinite" type="translate" attributeName="transform" dur="0.2s" begin="0s" calcMode="spline" values="89.752 192.7; 89.752 192.7; 89.752 191.658; 89.752 192.7" keyTimes="0; 0.166665; 0.666665; 1" keySplines="0 0 1 1; 0.512 0 0.833 1; 0.565 0 0.465 1" fill="freeze" /><g transform="scale(1,1) translate(-73.5,-54.5)"><g clip-path="url(#i65)"><g transform="matrix(1,0,0,1,73.25,54.478)"><g><rect height="108.955" width="146.5" y="-54.477" x="-73.25" /></g></g><g mask="url(#i68)" transform="matrix(-1,0,0,1,99.383,54.725)"><g><path fill="#3e2407" d="M5.006,5.676C-0.782,0.02,-4.176,-7.755,-3.897,-10.095C-4.224,-7.35,-7.618,3.256,-0.62,10.095C-0.62,10.095,5.006,5.676,5.006,5.676Z" /></g></g><g display="none" transform="matrix(-1,0,0,1,73.25,54.478)"><g fill="#ff0000"><path fill="url(#i66)" d="M73.25,12.842C47.642,-7.741,1.105,-53.91,-0.784,-54.346C-8.784,-56.192,-56.108,-38.116,-65.985,-33.278C-75.066,-25.468,-75.992,-12.539,-66.73,-3.821C-57.468,4.897,-36.945,5.441,-21.689,5.441C-16.362,10.466,-4.071,21.496,2.467,25.419C2.467,25.419,8.823,54.478,8.823,54.478C8.823,54.478,73.25,12.842,73.25,12.842Z" /></g></g></g></g></g></g><g id="i98"><g transform="translate(148.609,165.3)"><animateTransform repeatCount="indefinite" type="translate" attributeName="transform" dur="0.2s" begin="0s" calcMode="spline" values="148.609 165.3; 148.609 165.3; 148.609 161.814; 148.609 165.3" keyTimes="0; 0.166665; 0.666665; 1" keySplines="0 0 1 1; 0.596 0 0.833 1; 0.502 0 0.382 1" fill="freeze" /><g transform="rotate(3)"><animateTransform repeatCount="indefinite" type="rotate" attributeName="transform" dur="0.2s" begin="0s" calcMode="spline" values="3; 3; 0; 3" keyTimes="0; 0.166665; 0.666665; 1" keySplines="0 0 1 1; 0.333 0 0.833 1; 0.333 0 0.667 1" fill="freeze" /><g transform="scale(-1,1) translate(0,0)"><g id="i98"><path fill="url(#i74)" d="M2.843,8.95C4.677,6.917,9.762,-6.608,12.607,-11.814C0.607,-7.814,-4.916,-7.086,-10.579,-0.529C-17.807,7.84,-3.906,16.428,2.843,8.95Z" /></g></g></g></g></g><g transform="matrix(1,0,0,1,0,0)" id="i99"><g clip-path="url(#i75)"><g transform="matrix(1,0,0,1,483.252,191.568)"><g><path d="M-1.147,-54.437C0.742,-54.001,47.642,-7.651,73.25,12.932C73.25,12.932,8.823,54.568,8.823,54.568C8.823,54.568,2.467,25.509,2.467,25.509C-4.071,21.586,-16.362,10.556,-21.689,5.531C-36.945,5.531,-57.468,4.987,-66.73,-3.731C-75.992,-12.449,-75.066,-25.378,-65.985,-33.188C-56.108,-38.026,-9.147,-56.283,-1.147,-54.437Z" fill="url(#i76)"><animate repeatCount="indefinite" attributeName="d" dur="0.2s" begin="0s" calcMode="spline" values="M-1.147,-54.437C0.742,-54.001,47.642,-7.651,73.25,12.932C73.25,12.932,8.823,54.568,8.823,54.568C8.823,54.568,2.467,25.509,2.467,25.509C-4.071,21.586,-16.362,10.556,-21.689,5.531C-36.945,5.531,-57.468,4.987,-66.73,-3.731C-75.992,-12.449,-75.066,-25.378,-65.985,-33.188C-56.108,-38.026,-9.147,-56.283,-1.147,-54.437Z; M-1.147,-54.437C0.742,-54.001,47.642,-7.651,73.25,12.932C73.25,12.932,8.823,54.568,8.823,54.568C8.823,54.568,2.467,25.509,2.467,25.509C-4.071,21.586,-16.362,10.556,-21.689,5.531C-36.945,5.531,-57.468,4.987,-66.73,-3.731C-75.992,-12.449,-75.066,-25.378,-65.985,-33.188C-56.108,-38.026,-9.147,-56.283,-1.147,-54.437Z; M-1.147,-54.437C0.742,-54.001,47.642,-7.651,73.25,12.932C73.25,12.932,8.823,54.568,8.823,54.568C8.823,54.568,2.467,25.509,2.467,25.509C-4.071,21.586,-16.362,10.556,-21.689,5.531C-36.945,5.531,-57.468,9.987,-66.73,1.269C-75.992,-7.449,-75.066,-20.378,-65.985,-28.188C-56.108,-33.026,-9.147,-56.283,-1.147,-54.437Z; M-1.147,-54.437C0.742,-54.001,47.642,-7.651,73.25,12.932C73.25,12.932,8.823,54.568,8.823,54.568C8.823,54.568,2.467,25.509,2.467,25.509C-4.071,21.586,-16.362,10.556,-21.689,5.531C-36.945,5.531,-57.468,4.987,-66.73,-3.731C-75.992,-12.449,-75.066,-25.378,-65.985,-33.188C-56.108,-38.026,-9.147,-56.283,-1.147,-54.437Z" keyTimes="0; 0.166667; 0.666667; 1" keySplines="0 0 1 1; 0.415 0 0.562 1; 0.44 0 0.578 1" fill="freeze" /></path></g></g><g><g transform="translate(483.252,191.658)"><animateTransform repeatCount="indefinite" type="translate" attributeName="transform" dur="0.2s" begin="0s" calcMode="spline" values="483.252 191.658; 483.252 191.658; 484.252 192.658; 483.252 191.658" keyTimes="0; 0.166665; 0.666665; 1" keySplines="0 0 1 1; 0.434 0 0.553 1; 0.44 0 0.549 1" fill="freeze" /><g transform="scale(1,1) translate(-73.5,-54.5)"><g clip-path="url(#i65)"><g transform="matrix(1,0,0,1,73.25,54.478)"><g><rect height="108.955" width="146.5" y="-54.477" x="-73.25" /></g></g><g mask="url(#i79)" transform="matrix(1,0,0,1,47.117,54.725)"><g><path fill="#3e2407" d="M5.006,5.676C-0.782,0.02,-4.176,-7.755,-3.897,-10.095C-4.224,-7.35,-7.618,3.256,-0.62,10.095C-0.62,10.095,5.006,5.676,5.006,5.676Z" /></g></g><g display="none" transform="matrix(1,0,0,1,73.25,54.478)"><g fill="#ff0000"><path fill="url(#i77)" d="M-0.784,-54.346C1.105,-53.91,47.642,-7.741,73.25,12.842C73.25,12.842,8.823,54.478,8.823,54.478C8.823,54.478,2.467,25.419,2.467,25.419C-4.071,21.496,-16.362,10.466,-21.689,5.441C-36.945,5.441,-57.468,4.897,-66.73,-3.821C-75.992,-12.539,-75.066,-25.468,-65.985,-33.278C-56.108,-38.116,-8.784,-56.192,-0.784,-54.346Z" /></g></g></g></g></g></g><g><g transform="translate(424.396,161.814)"><animateTransform repeatCount="indefinite" type="translate" attributeName="transform" dur="0.2s" begin="0s" calcMode="spline" values="424.396 161.814; 424.396 161.814; 424.396 166.314; 424.396 161.814" keyTimes="0; 0.166665; 0.666665; 1" keySplines="0 0 1 1; 0.54 0 0.42 1; 0.562 0 0.488 1" fill="freeze" /><g transform="rotate(0)"><animateTransform repeatCount="indefinite" type="rotate" attributeName="transform" dur="0.2s" begin="0s" calcMode="spline" values="0; 0; -3; 0" keyTimes="0; 0.166665; 0.666665; 1" keySplines="0 0 1 1; 0.333 0 0.667 1; 0.333 0 0.667 1" fill="freeze" /><g transform="scale(1,1) translate(0,0)"><g><path fill="url(#i82)" d="M2.843,8.95C4.677,6.917,9.762,-6.608,12.607,-11.814C0.607,-7.814,-4.916,-7.086,-10.579,-0.529C-17.807,7.84,-3.906,16.428,2.843,8.95Z" /></g></g></g></g></g></g></g><g transform="matrix(1,0,0,1,483.252,191.568)" id="i84"><g id="i84"><path d="M-1.147,-54.437C0.742,-54.001,47.642,-7.651,73.25,12.932C73.25,12.932,8.823,54.568,8.823,54.568C8.823,54.568,2.467,25.509,2.467,25.509C-4.071,21.586,-16.362,10.556,-21.689,5.531C-36.945,5.531,-57.468,4.987,-66.73,-3.731C-75.992,-12.449,-75.066,-25.378,-65.985,-33.188C-56.108,-38.026,-9.147,-56.283,-1.147,-54.437Z" fill="url(#i86)"><animate repeatCount="indefinite" attributeName="d" dur="0.2s" begin="0s" calcMode="spline" values="M-1.147,-54.437C0.742,-54.001,47.642,-7.651,73.25,12.932C73.25,12.932,8.823,54.568,8.823,54.568C8.823,54.568,2.467,25.509,2.467,25.509C-4.071,21.586,-16.362,10.556,-21.689,5.531C-36.945,5.531,-57.468,4.987,-66.73,-3.731C-75.992,-12.449,-75.066,-25.378,-65.985,-33.188C-56.108,-38.026,-9.147,-56.283,-1.147,-54.437Z; M-1.147,-54.437C0.742,-54.001,47.642,-7.651,73.25,12.932C73.25,12.932,8.823,54.568,8.823,54.568C8.823,54.568,2.467,25.509,2.467,25.509C-4.071,21.586,-16.362,10.556,-21.689,5.531C-36.945,5.531,-57.468,4.987,-66.73,-3.731C-75.992,-12.449,-75.066,-25.378,-65.985,-33.188C-56.108,-38.026,-9.147,-56.283,-1.147,-54.437Z; M-1.147,-54.437C0.742,-54.001,47.642,-7.651,73.25,12.932C73.25,12.932,8.823,54.568,8.823,54.568C8.823,54.568,2.467,25.509,2.467,25.509C-4.071,21.586,-16.362,10.556,-21.689,5.531C-36.945,5.531,-57.468,9.987,-66.73,1.269C-75.992,-7.449,-75.066,-20.378,-65.985,-28.188C-56.108,-33.026,-9.147,-56.283,-1.147,-54.437Z; M-1.147,-54.437C0.742,-54.001,47.642,-7.651,73.25,12.932C73.25,12.932,8.823,54.568,8.823,54.568C8.823,54.568,2.467,25.509,2.467,25.509C-4.071,21.586,-16.362,10.556,-21.689,5.531C-36.945,5.531,-57.468,4.987,-66.73,-3.731C-75.992,-12.449,-75.066,-25.378,-65.985,-33.188C-56.108,-38.026,-9.147,-56.283,-1.147,-54.437Z" keyTimes="0; 0.166667; 0.666667; 1" keySplines="0 0 1 1; 0.333 0 0.667 1; 0.333 0 0.667 1" fill="freeze" /></path></g></g><g id="i100"><g transform="translate(483.252,191.658)"><animateTransform repeatCount="indefinite" type="translate" attributeName="transform" dur="0.2s" begin="0s" calcMode="spline" values="483.252 191.658; 483.252 191.658; 484.252 192.658; 483.252 191.658" keyTimes="0; 0.166665; 0.666665; 1" keySplines="0 0 1 1; 0.333 0 0.667 1; 0.333 0 0.667 1" fill="freeze" /><g transform="scale(1,1) translate(-73.5,-54.5)"><g clip-path="url(#i65)"><g transform="matrix(1,0,0,1,73.25,54.478)"><g><rect height="108.955" width="146.5" y="-54.477" x="-73.25" /></g></g><g mask="url(#i79)" transform="matrix(1,0,0,1,47.117,54.725)"><g><path fill="#3e2407" d="M5.006,5.676C-0.782,0.02,-4.176,-7.755,-3.897,-10.095C-4.224,-7.35,-7.618,3.256,-0.62,10.095C-0.62,10.095,5.006,5.676,5.006,5.676Z" /></g></g><g display="none" transform="matrix(1,0,0,1,73.25,54.478)"><g fill="#ff0000"><path fill="url(#i77)" d="M-0.784,-54.346C1.105,-53.91,47.642,-7.741,73.25,12.842C73.25,12.842,8.823,54.478,8.823,54.478C8.823,54.478,2.467,25.419,2.467,25.419C-4.071,21.496,-16.362,10.466,-21.689,5.441C-36.945,5.441,-57.468,4.897,-66.73,-3.821C-75.992,-12.539,-75.066,-25.468,-65.985,-33.278C-56.108,-38.116,-8.784,-56.192,-0.784,-54.346Z" /></g></g></g></g></g></g><g id="i85"><g transform="translate(424.396,161.814)"><animateTransform repeatCount="indefinite" type="translate" attributeName="transform" dur="0.2s" begin="0s" calcMode="spline" values="424.396 161.814; 424.396 161.814; 424.396 166.314; 424.396 161.814" keyTimes="0; 0.166665; 0.666665; 1" keySplines="0 0 1 1; 0.54 0 0.42 1; 0.562 0 0.488 1" fill="freeze" /><g transform="rotate(0)"><animateTransform repeatCount="indefinite" type="rotate" attributeName="transform" dur="0.2s" begin="0s" calcMode="spline" values="0; 0; -3; 0" keyTimes="0; 0.166665; 0.666665; 1" keySplines="0 0 1 1; 0.333 0 0.667 1; 0.333 0 0.667 1" fill="freeze" /><g transform="scale(1,1) translate(0,0)"><g id="i85"><path fill="url(#i87)" d="M2.843,8.95C4.677,6.917,9.762,-6.608,12.607,-11.814C0.607,-7.814,-4.916,-7.086,-10.579,-0.529C-17.807,7.84,-3.906,16.428,2.843,8.95Z" /></g></g></g></g></g></svg>